<svg version="1.2" xmlns="http://www.w3.org/2000/svg" viewBox="0 0 120 24" width="120" height="24"><style>.a{fill:#2c2e35}</style><path fill-rule="evenodd" class="a" d="m35.3 12.3q0-1 0.4-1.9 0.3-1 1-1.7 0.7-0.8 1.7-1.3 0.9-0.4 2.2-0.4 1.5 0 2.6 0.6 1 0.7 1.6 1.7l-1.6 1.1q-0.2-0.4-0.5-0.7-0.4-0.4-0.7-0.5-0.3-0.2-0.7-0.3-0.4-0.1-0.8-0.1-0.7 0-1.3 0.3-0.6 0.3-1 0.9-0.4 0.5-0.6 1.1-0.2 0.6-0.2 1.3 0 0.7 0.3 1.3 0.2 0.7 0.6 1.2 0.4 0.5 1 0.8 0.6 0.3 1.3 0.3 0.3 0 0.7-0.1 0.4-0.1 0.8-0.3 0.3-0.2 0.6-0.5 0.3-0.3 0.5-0.7l1.7 1q-0.2 0.6-0.7 1-0.5 0.5-1.1 0.8-0.6 0.3-1.3 0.5-0.6 0.1-1.3 0.1-1.1 0-2.1-0.4-0.9-0.5-1.6-1.3-0.7-0.8-1.1-1.8-0.4-1-0.4-2zm11 5.5v-10.8h2.1v8.9h5.5v1.9zm20.6-2.8q0 0.7-0.2 1.2-0.3 0.5-0.8 0.8-0.4 0.4-1.1 0.6-0.6 0.2-1.3 0.2h-5.2v-10.8h5.7q0.6 0 1.1 0.3 0.4 0.2 0.7 0.6 0.3 0.4 0.5 0.9 0.2 0.5 0.2 1 0 0.7-0.4 1.4-0.4 0.7-1.1 1.1 0.9 0.2 1.4 0.9 0.5 0.7 0.5 1.8zm-2-0.4q0-0.3-0.1-0.6-0.1-0.2-0.3-0.4-0.2-0.2-0.4-0.3-0.2-0.1-0.5-0.1h-3.2v2.8h3.1q0.3 0 0.5-0.1 0.3-0.1 0.5-0.3 0.1-0.2 0.2-0.5 0.2-0.2 0.2-0.5zm-4.5-5.8v2.7h2.8q0.5 0 0.9-0.3 0.3-0.4 0.3-1 0-0.7-0.3-1-0.3-0.4-0.8-0.4zm10.1 9.1q-0.6 0-1.1-0.2-0.5-0.2-0.8-0.5-0.4-0.4-0.6-0.8-0.2-0.5-0.2-1 0-0.6 0.3-1 0.2-0.5 0.7-0.8 0.4-0.4 1-0.6 0.6-0.2 1.4-0.2 0.5 0 1 0.1 0.5 0.1 0.9 0.3v-0.5q0-0.7-0.4-1.2-0.5-0.4-1.4-0.4-0.6 0-1.2 0.2-0.6 0.3-1.2 0.7l-0.7-1.3q1.6-1 3.3-1 1.7 0 2.7 0.8 0.9 0.9 0.9 2.5v2.4q0 0.3 0.1 0.5 0.2 0.1 0.4 0.1v1.8q-0.5 0.1-0.9 0.1-0.5 0-0.9-0.3-0.3-0.3-0.3-0.7l-0.1-0.4q-0.5 0.7-1.3 1-0.7 0.4-1.6 0.4zm0.6-1.5q0.5 0 1-0.2 0.4-0.1 0.7-0.4 0.3-0.3 0.3-0.6v-0.9q-0.4-0.2-0.8-0.2-0.4-0.1-0.8-0.1-0.8 0-1.3 0.3-0.5 0.4-0.5 0.9 0 0.5 0.4 0.9 0.4 0.3 1 0.3zm10.6 0.9q-0.4 0.2-1 0.4-0.6 0.2-1.2 0.2-0.5 0-0.8-0.1-0.4-0.1-0.7-0.4-0.3-0.2-0.4-0.6-0.2-0.3-0.2-0.9v-4.5h-1v-1.6h1v-2.5h2v2.5h1.7v1.6h-1.7v3.9q0 0.4 0.3 0.6 0.2 0.1 0.5 0.1 0.3 0 0.6-0.1 0.3-0.1 0.5-0.2zm4.5 0.6q-0.9 0-1.7-0.3-0.8-0.3-1.3-0.9-0.6-0.6-0.8-1.3-0.3-0.7-0.3-1.6 0-0.8 0.2-1.6 0.3-0.7 0.9-1.3 0.5-0.5 1.3-0.9 0.8-0.3 1.7-0.3 1 0 1.8 0.3 0.7 0.4 1.3 0.9 0.5 0.6 0.8 1.3 0.3 0.8 0.3 1.6 0 0.2 0 0.3 0 0.2-0.1 0.3h-6.1q0 0.5 0.2 0.9 0.2 0.3 0.5 0.6 0.3 0.3 0.6 0.4 0.4 0.1 0.8 0.1 0.6 0 1.1-0.3 0.6-0.3 0.8-0.7l1.7 0.4q-0.4 0.9-1.4 1.5-0.9 0.6-2.3 0.6zm2.1-4.8q-0.1-0.9-0.7-1.4-0.6-0.5-1.4-0.5-0.4 0-0.7 0.1-0.4 0.2-0.7 0.4-0.2 0.3-0.4 0.6-0.2 0.4-0.2 0.8zm8-1.5q-0.9 0-1.6 0.3-0.8 0.4-1.1 1.1v4.8h-2v-8h1.9v1.7q0.2-0.4 0.5-0.7 0.2-0.3 0.6-0.6 0.3-0.2 0.6-0.3 0.4-0.2 0.7-0.2 0.2 0 0.3 0 0 0 0.1 0zm1.1-1.7h2.1v7.9h-2.1zm0-3.1h2.1v2h-2.1zm6.1 11.2q-0.6 0-1.1-0.2-0.5-0.2-0.9-0.5-0.3-0.4-0.5-0.8-0.3-0.5-0.3-1 0-0.6 0.3-1.1 0.2-0.4 0.7-0.8 0.4-0.3 1.1-0.5 0.6-0.2 1.3-0.2 0.5 0 1.1 0.1 0.5 0.1 0.9 0.3v-0.5q0-0.8-0.5-1.2-0.4-0.4-1.3-0.4-0.7 0-1.3 0.2-0.6 0.2-1.2 0.7l-0.6-1.3q1.5-1 3.3-1 1.7 0 2.6 0.8 1 0.9 1 2.4v2.5q0 0.3 0.1 0.5 0.1 0.1 0.4 0.1v1.7q-0.6 0.1-0.9 0.1-0.6 0-0.9-0.2-0.3-0.3-0.4-0.7v-0.4q-0.6 0.7-1.3 1-0.8 0.4-1.6 0.4zm0.5-1.5q0.5 0 1-0.2 0.5-0.2 0.7-0.5 0.4-0.2 0.4-0.5v-0.9q-0.4-0.2-0.8-0.3-0.5 0-0.9 0-0.7 0-1.2 0.3-0.5 0.4-0.5 0.9 0 0.5 0.4 0.9 0.4 0.3 0.9 0.3zm9 1.5q-1 0-2-0.3-0.9-0.3-1.6-0.9l0.7-1.3q0.8 0.5 1.4 0.8 0.7 0.2 1.4 0.2 0.6 0 1-0.2 0.3-0.2 0.3-0.6 0-0.5-0.4-0.7-0.4-0.2-1.3-0.4-0.8-0.2-1.3-0.4-0.6-0.2-0.9-0.5-0.4-0.2-0.5-0.5-0.2-0.4-0.2-0.8 0-0.6 0.3-1.1 0.2-0.5 0.6-0.8 0.5-0.4 1-0.6 0.6-0.1 1.3-0.1 0.8 0 1.6 0.2 0.8 0.3 1.5 0.9l-0.9 1.2q-0.6-0.5-1.1-0.7-0.6-0.2-1.2-0.2-0.5 0-0.8 0.2-0.4 0.2-0.4 0.7 0 0.2 0.1 0.3 0.1 0.2 0.3 0.3 0.2 0.1 0.5 0.2 0.3 0.1 0.7 0.2 0.8 0.2 1.4 0.4 0.6 0.2 0.9 0.5 0.4 0.3 0.6 0.6 0.2 0.4 0.2 0.9 0 1.1-0.9 1.8-0.9 0.7-2.3 0.7zm-86.6-9.9h-23c-0.3 0-0.5-0.3-0.5-0.5v-2.2c0-0.3 0.2-0.5 0.5-0.5h5.6v-1.7c0-0.3 0.3-0.5 0.5-0.5h10.8c0.2 0 0.4 0.2 0.4 0.5v1.7h5.7c0.3 0 0.5 0.2 0.5 0.5v2.2c0 0.2-0.2 0.5-0.5 0.5zm-0.9 14.6h-21.2c-0.5 0-0.8-0.4-0.8-0.8v-13.1h22.8v13.1c0 0.4-0.3 0.8-0.8 0.8zm-6.8-11.2c0-0.2-0.1-0.3-0.3-0.3h-3.5v3.1h2.2l-3.2 6.1q3.7 0 7.4 0c0.2 0 0.3-0.2 0.3-0.4v-2.8c0-0.2-0.1-0.4-0.3-0.4h-2.6zm-10.6 4.3c0 2.5 2.1 4.6 4.6 4.6h0.4v-3.1h-2.1l3.1-6.1h-1.4c-2.5 0-4.6 2.1-4.6 4.6zm13.8-12.4c0-0.2 0.2-0.4 0.4-0.4v-0.5c0-0.2 0.2-0.4 0.5-0.4h1.6c0.3 0 0.4 0.2 0.4 0.4v0.5h0.1c0.2 0 0.4 0.2 0.4 0.4v0.8h-3.4zm-14 0.8h-3.4v-0.8c0-0.2 0.2-0.4 0.4-0.4v-0.5c0-0.2 0.2-0.4 0.5-0.4h1.6c0.3 0 0.4 0.2 0.4 0.4v0.5h0.1c0.2 0 0.4 0.2 0.4 0.4z"/></svg>