<svg xmlns="http://www.w3.org/2000/svg" xmlns:xlink="http://www.w3.org/1999/xlink" width="400" zoomAndPan="magnify" viewBox="0 0 300 49.499998" height="66" preserveAspectRatio="xMidYMid meet" version="1.0"><defs><g/></defs><g fill="#ff5d1d" fill-opacity="1"><g transform="translate(1.463654, 45.972704)"><g><path d="M 17.90625 0.34375 C 15.425781 0.34375 13.238281 0.0546875 11.34375 -0.515625 C 9.457031 -1.085938 7.859375 -2.132812 6.546875 -3.65625 C 5.234375 -5.1875 4.242188 -7.367188 3.578125 -10.203125 C 2.910156 -13.046875 2.578125 -16.738281 2.578125 -21.28125 C 2.578125 -25.65625 2.925781 -29.242188 3.625 -32.046875 C 4.332031 -34.847656 5.351562 -37.019531 6.6875 -38.5625 C 8.019531 -40.113281 9.640625 -41.191406 11.546875 -41.796875 C 13.453125 -42.410156 15.609375 -42.71875 18.015625 -42.71875 C 19.921875 -42.71875 21.703125 -42.613281 23.359375 -42.40625 C 25.015625 -42.195312 26.507812 -41.945312 27.84375 -41.65625 C 29.1875 -41.375 30.3125 -41.0625 31.21875 -40.71875 L 31.21875 -34.140625 C 30.53125 -34.296875 29.601562 -34.445312 28.4375 -34.59375 C 27.28125 -34.75 25.957031 -34.875 24.46875 -34.96875 C 22.988281 -35.0625 21.425781 -35.109375 19.78125 -35.109375 C 18.1875 -35.109375 16.828125 -34.925781 15.703125 -34.5625 C 14.578125 -34.207031 13.679688 -33.539062 13.015625 -32.5625 C 12.347656 -31.59375 11.847656 -30.191406 11.515625 -28.359375 C 11.191406 -26.535156 11.03125 -24.15625 11.03125 -21.21875 C 11.03125 -18.394531 11.171875 -16.066406 11.453125 -14.234375 C 11.742188 -12.410156 12.210938 -10.992188 12.859375 -9.984375 C 13.515625 -8.972656 14.40625 -8.265625 15.53125 -7.859375 C 16.65625 -7.460938 18.070312 -7.265625 19.78125 -7.265625 C 22.6875 -7.265625 25.039062 -7.320312 26.84375 -7.4375 C 28.65625 -7.550781 30.113281 -7.679688 31.21875 -7.828125 L 31.21875 -1.3125 C 30.195312 -0.96875 29.015625 -0.671875 27.671875 -0.421875 C 26.335938 -0.179688 24.867188 0.00390625 23.265625 0.140625 C 21.671875 0.273438 19.882812 0.34375 17.90625 0.34375 Z M 17.90625 0.34375 "/></g></g></g><g fill="#ff5d1d" fill-opacity="1"><g transform="translate(32.989018, 46.73123)"><g><path d="M 13.53125 0 C 11.382812 0 9.5625 -0.328125 8.0625 -0.984375 C 6.570312 -1.648438 5.457031 -2.707031 4.71875 -4.15625 C 3.988281 -5.613281 3.625 -7.53125 3.625 -9.90625 L 3.625 -41.90625 L 12 -41.90625 L 12 -11.265625 C 12 -10.359375 12.160156 -9.617188 12.484375 -9.046875 C 12.804688 -8.484375 13.25 -8.097656 13.8125 -7.890625 C 14.382812 -7.691406 15.023438 -7.59375 15.734375 -7.59375 L 28.984375 -7.59375 L 28.984375 0 Z M 13.53125 0 "/></g></g></g><g fill="#ff5d1d" fill-opacity="1"><g transform="translate(72.790499, 46.345663)"><g><path d="M 3.5625 0 L 3.5625 -41.140625 L 19.734375 -41.140625 C 23.804688 -41.140625 26.78125 -40.203125 28.65625 -38.328125 C 30.53125 -36.460938 31.46875 -33.804688 31.46875 -30.359375 C 31.46875 -28.722656 31.234375 -27.285156 30.765625 -26.046875 C 30.304688 -24.804688 29.648438 -23.785156 28.796875 -22.984375 C 27.941406 -22.191406 26.921875 -21.644531 25.734375 -21.34375 C 26.628906 -21.125 27.492188 -20.769531 28.328125 -20.28125 C 29.160156 -19.800781 29.921875 -19.15625 30.609375 -18.34375 C 31.296875 -17.53125 31.832031 -16.539062 32.21875 -15.375 C 32.601562 -14.207031 32.796875 -12.863281 32.796875 -11.34375 C 32.796875 -8.5625 32.320312 -6.335938 31.375 -4.671875 C 30.4375 -3.003906 29.050781 -1.804688 27.21875 -1.078125 C 25.382812 -0.359375 23.128906 0 20.453125 0 Z M 11.78125 -7.390625 L 20.234375 -7.390625 C 21.203125 -7.390625 22.035156 -7.570312 22.734375 -7.9375 C 23.441406 -8.3125 23.988281 -8.890625 24.375 -9.671875 C 24.769531 -10.453125 24.96875 -11.488281 24.96875 -12.78125 C 24.96875 -13.863281 24.757812 -14.773438 24.34375 -15.515625 C 23.9375 -16.253906 23.378906 -16.828125 22.671875 -17.234375 C 21.972656 -17.640625 21.160156 -17.84375 20.234375 -17.84375 L 11.78125 -17.84375 Z M 11.78125 -24.1875 L 19.796875 -24.1875 C 20.984375 -24.1875 21.914062 -24.617188 22.59375 -25.484375 C 23.28125 -26.359375 23.625 -27.5 23.625 -28.90625 C 23.664062 -30.726562 23.296875 -31.988281 22.515625 -32.6875 C 21.734375 -33.394531 20.789062 -33.75 19.6875 -33.75 L 11.78125 -33.75 Z M 11.78125 -24.1875 "/></g></g></g><g fill="#ff5d1d" fill-opacity="1"><g transform="translate(107.100661, 46.345663)"><g><path d="M 0.9375 0 L 13.84375 -41.140625 L 24.234375 -41.140625 L 37.140625 0 L 28.578125 0 L 25.96875 -8.609375 L 11.953125 -8.609375 L 9.390625 0 Z M 13.890625 -16.015625 L 24.015625 -16.015625 L 18.953125 -34.078125 Z M 13.890625 -16.015625 "/></g></g></g><g fill="#ff5d1d" fill-opacity="1"><g transform="translate(144.641653, 47.042532)"><g><path d="M 12.1875 0 L 12.1875 -33.78125 L 0.890625 -33.78125 L 0.890625 -41.171875 L 31.765625 -41.171875 L 31.765625 -33.78125 L 20.421875 -33.78125 L 20.421875 0 Z M 12.1875 0 "/></g></g></g><g fill="#ff5d1d" fill-opacity="1"><g transform="translate(176.749931, 47.042532)"><g><path d="M 13.578125 0.28125 C 12.679688 0.28125 11.660156 0.195312 10.515625 0.03125 C 9.367188 -0.132812 8.265625 -0.515625 7.203125 -1.109375 C 6.148438 -1.703125 5.28125 -2.601562 4.59375 -3.8125 C 3.90625 -5.019531 3.5625 -6.679688 3.5625 -8.796875 L 3.5625 -31.765625 C 3.5625 -33.585938 3.835938 -35.109375 4.390625 -36.328125 C 4.953125 -37.554688 5.695312 -38.519531 6.625 -39.21875 C 7.550781 -39.925781 8.566406 -40.425781 9.671875 -40.71875 C 10.785156 -41.019531 11.882812 -41.171875 12.96875 -41.171875 C 15.75 -41.171875 18.203125 -41.132812 20.328125 -41.0625 C 22.460938 -40.988281 24.382812 -40.90625 26.09375 -40.8125 C 27.800781 -40.71875 29.359375 -40.597656 30.765625 -40.453125 L 30.765625 -33.546875 L 15.40625 -33.546875 C 14.257812 -33.546875 13.367188 -33.265625 12.734375 -32.703125 C 12.109375 -32.148438 11.796875 -31.300781 11.796875 -30.15625 L 11.796875 -24.203125 L 28.09375 -23.765625 L 28.09375 -17.25 L 11.796875 -16.796875 L 11.796875 -11.125 C 11.796875 -10.164062 11.953125 -9.414062 12.265625 -8.875 C 12.578125 -8.332031 13.003906 -7.957031 13.546875 -7.75 C 14.085938 -7.550781 14.65625 -7.453125 15.25 -7.453125 L 30.765625 -7.453125 L 30.765625 -0.5625 C 29.140625 -0.375 27.332031 -0.222656 25.34375 -0.109375 C 23.363281 0.00390625 21.359375 0.0976562 19.328125 0.171875 C 17.304688 0.242188 15.390625 0.28125 13.578125 0.28125 Z M 13.578125 0.28125 "/></g></g></g><g fill="#ff5d1d" fill-opacity="1"><g transform="translate(209.415086, 47.042532)"><g><path d="M 3.5625 0 L 3.5625 -41.171875 L 20.59375 -41.171875 C 22.21875 -41.171875 23.734375 -40.972656 25.140625 -40.578125 C 26.554688 -40.191406 27.800781 -39.515625 28.875 -38.546875 C 29.945312 -37.585938 30.789062 -36.253906 31.40625 -34.546875 C 32.019531 -32.847656 32.328125 -30.660156 32.328125 -27.984375 C 32.328125 -26.097656 32.140625 -24.484375 31.765625 -23.140625 C 31.398438 -21.804688 30.910156 -20.710938 30.296875 -19.859375 C 29.679688 -19.003906 28.984375 -18.316406 28.203125 -17.796875 C 27.429688 -17.285156 26.632812 -16.863281 25.8125 -16.53125 L 33.5 0 L 25.09375 0 L 18.46875 -15.25 C 18.03125 -15.25 17.519531 -15.253906 16.9375 -15.265625 C 16.363281 -15.285156 15.78125 -15.296875 15.1875 -15.296875 C 14.59375 -15.296875 14 -15.296875 13.40625 -15.296875 C 12.8125 -15.296875 12.273438 -15.316406 11.796875 -15.359375 L 11.796875 0 Z M 11.796875 -21.859375 L 19.140625 -21.859375 C 19.878906 -21.859375 20.546875 -21.953125 21.140625 -22.140625 C 21.734375 -22.328125 22.253906 -22.648438 22.703125 -23.109375 C 23.148438 -23.578125 23.492188 -24.203125 23.734375 -24.984375 C 23.972656 -25.765625 24.09375 -26.765625 24.09375 -27.984375 C 24.09375 -29.140625 23.972656 -30.097656 23.734375 -30.859375 C 23.492188 -31.617188 23.148438 -32.207031 22.703125 -32.625 C 22.253906 -33.050781 21.734375 -33.347656 21.140625 -33.515625 C 20.546875 -33.691406 19.878906 -33.78125 19.140625 -33.78125 L 11.796875 -33.78125 Z M 11.796875 -21.859375 "/></g></g></g><g fill="#ff5d1d" fill-opacity="1"><g transform="translate(243.739234, 47.042532)"><g><path d="M 3.5625 0 L 3.5625 -41.171875 L 11.796875 -41.171875 L 11.796875 0 Z M 3.5625 0 "/></g></g></g><g fill="#ff5d1d" fill-opacity="1"><g transform="translate(258.537968, 47.042532)"><g><path d="M 0.953125 0 L 13.859375 -41.171875 L 24.265625 -41.171875 L 37.171875 0 L 28.59375 0 L 25.984375 -8.625 L 11.96875 -8.625 L 9.40625 0 Z M 13.90625 -16.03125 L 24.03125 -16.03125 L 18.96875 -34.109375 Z M 13.90625 -16.03125 "/></g></g></g></svg>