<svg xmlns="http://www.w3.org/2000/svg" xmlns:xlink="http://www.w3.org/1999/xlink" width="300" zoomAndPan="magnify" viewBox="0 0 224.87999 49.499998" height="66" preserveAspectRatio="xMidYMid meet" version="1.0"><defs><g/></defs><g fill="#ff5d1d" fill-opacity="1"><g transform="translate(0.271608, 39.729842)"><g><path d="M 14.40625 0.28125 C 12.414062 0.28125 10.660156 0.0507812 9.140625 -0.40625 C 7.617188 -0.875 6.328125 -1.71875 5.265625 -2.9375 C 4.210938 -4.164062 3.414062 -5.925781 2.875 -8.21875 C 2.34375 -10.507812 2.078125 -13.476562 2.078125 -17.125 C 2.078125 -20.65625 2.359375 -23.546875 2.921875 -25.796875 C 3.492188 -28.054688 4.316406 -29.804688 5.390625 -31.046875 C 6.460938 -32.296875 7.765625 -33.164062 9.296875 -33.65625 C 10.835938 -34.144531 12.570312 -34.390625 14.5 -34.390625 C 16.039062 -34.390625 17.476562 -34.304688 18.8125 -34.140625 C 20.144531 -33.972656 21.347656 -33.773438 22.421875 -33.546875 C 23.492188 -33.316406 24.398438 -33.0625 25.140625 -32.78125 L 25.140625 -27.484375 C 24.585938 -27.609375 23.84375 -27.734375 22.90625 -27.859375 C 21.96875 -27.984375 20.898438 -28.082031 19.703125 -28.15625 C 18.503906 -28.226562 17.25 -28.265625 15.9375 -28.265625 C 14.644531 -28.265625 13.546875 -28.117188 12.640625 -27.828125 C 11.734375 -27.535156 11.007812 -27 10.46875 -26.21875 C 9.9375 -25.4375 9.539062 -24.304688 9.28125 -22.828125 C 9.019531 -21.359375 8.890625 -19.441406 8.890625 -17.078125 C 8.890625 -14.804688 9.003906 -12.929688 9.234375 -11.453125 C 9.460938 -9.984375 9.835938 -8.84375 10.359375 -8.03125 C 10.878906 -7.21875 11.59375 -6.648438 12.5 -6.328125 C 13.40625 -6.003906 14.550781 -5.84375 15.9375 -5.84375 C 18.269531 -5.84375 20.164062 -5.890625 21.625 -5.984375 C 23.082031 -6.078125 24.253906 -6.1875 25.140625 -6.3125 L 25.140625 -1.0625 C 24.304688 -0.78125 23.351562 -0.539062 22.28125 -0.34375 C 21.207031 -0.144531 20.023438 0.00390625 18.734375 0.109375 C 17.453125 0.222656 16.007812 0.28125 14.40625 0.28125 Z M 14.40625 0.28125 "/></g></g></g><g fill="#ff5d1d" fill-opacity="1"><g transform="translate(25.642278, 39.729842)"><g><path d="M 11 0 C 9.25 0 7.769531 -0.265625 6.5625 -0.796875 C 5.351562 -1.335938 4.445312 -2.195312 3.84375 -3.375 C 3.25 -4.5625 2.953125 -6.125 2.953125 -8.0625 L 2.953125 -34.078125 L 9.765625 -34.078125 L 9.765625 -9.15625 C 9.765625 -8.425781 9.894531 -7.828125 10.15625 -7.359375 C 10.414062 -6.898438 10.773438 -6.585938 11.234375 -6.421875 C 11.691406 -6.253906 12.210938 -6.171875 12.796875 -6.171875 L 23.578125 -6.171875 L 23.578125 0 Z M 11 0 "/></g></g></g><g fill="#ff5d1d" fill-opacity="1"><g transform="translate(48.664639, 39.729842)"><g/></g></g><g fill="#ff5d1d" fill-opacity="1"><g transform="translate(58.932478, 39.729842)"><g><path d="M 2.953125 0 L 2.953125 -34.078125 L 16.34375 -34.078125 C 19.71875 -34.078125 22.179688 -33.300781 23.734375 -31.75 C 25.285156 -30.195312 26.0625 -27.992188 26.0625 -25.140625 C 26.0625 -23.785156 25.867188 -22.59375 25.484375 -21.5625 C 25.097656 -20.539062 24.550781 -19.695312 23.84375 -19.03125 C 23.144531 -18.375 22.300781 -17.925781 21.3125 -17.6875 C 22.050781 -17.5 22.765625 -17.203125 23.453125 -16.796875 C 24.148438 -16.398438 24.78125 -15.863281 25.34375 -15.1875 C 25.914062 -14.519531 26.363281 -13.703125 26.6875 -12.734375 C 27.007812 -11.765625 27.171875 -10.648438 27.171875 -9.390625 C 27.171875 -7.085938 26.773438 -5.242188 25.984375 -3.859375 C 25.203125 -2.484375 24.050781 -1.492188 22.53125 -0.890625 C 21.019531 -0.296875 19.15625 0 16.9375 0 Z M 9.765625 -6.125 L 16.765625 -6.125 C 17.554688 -6.125 18.242188 -6.273438 18.828125 -6.578125 C 19.410156 -6.890625 19.863281 -7.367188 20.1875 -8.015625 C 20.507812 -8.660156 20.671875 -9.519531 20.671875 -10.59375 C 20.671875 -11.476562 20.5 -12.226562 20.15625 -12.84375 C 19.820312 -13.457031 19.363281 -13.929688 18.78125 -14.265625 C 18.195312 -14.609375 17.523438 -14.78125 16.765625 -14.78125 L 9.765625 -14.78125 Z M 9.765625 -20.03125 L 16.390625 -20.03125 C 17.367188 -20.03125 18.140625 -20.390625 18.703125 -21.109375 C 19.273438 -21.828125 19.5625 -22.769531 19.5625 -23.9375 C 19.59375 -25.445312 19.285156 -26.492188 18.640625 -27.078125 C 18.003906 -27.660156 17.222656 -27.953125 16.296875 -27.953125 L 9.765625 -27.953125 Z M 9.765625 -20.03125 "/></g></g></g><g fill="#ff5d1d" fill-opacity="1"><g transform="translate(86.191002, 39.729842)"><g><path d="M 7.875 0.28125 C 6 0.28125 4.476562 -0.269531 3.3125 -1.375 C 2.144531 -2.488281 1.5625 -4.023438 1.5625 -5.984375 L 1.5625 -8.203125 C 1.5625 -10.066406 2.222656 -11.601562 3.546875 -12.8125 C 4.867188 -14.03125 6.925781 -14.640625 9.71875 -14.640625 L 16.03125 -14.640625 L 16.03125 -16.34375 C 16.03125 -17.113281 15.890625 -17.75 15.609375 -18.25 C 15.335938 -18.757812 14.820312 -19.128906 14.0625 -19.359375 C 13.3125 -19.585938 12.171875 -19.703125 10.640625 -19.703125 L 3.21875 -19.703125 L 3.21875 -23.671875 C 4.414062 -24.035156 5.804688 -24.351562 7.390625 -24.625 C 8.972656 -24.90625 10.882812 -25.046875 13.125 -25.046875 C 15.175781 -25.046875 16.929688 -24.800781 18.390625 -24.3125 C 19.847656 -23.820312 20.953125 -22.976562 21.703125 -21.78125 C 22.460938 -20.582031 22.84375 -18.925781 22.84375 -16.8125 L 22.84375 0 L 17.453125 0 L 16.34375 -2.625 C 16.132812 -2.375 15.765625 -2.09375 15.234375 -1.78125 C 14.710938 -1.476562 14.078125 -1.164062 13.328125 -0.84375 C 12.578125 -0.53125 11.734375 -0.265625 10.796875 -0.046875 C 9.859375 0.171875 8.882812 0.28125 7.875 0.28125 Z M 11.328125 -4.46875 C 11.628906 -4.46875 11.972656 -4.503906 12.359375 -4.578125 C 12.742188 -4.660156 13.144531 -4.753906 13.5625 -4.859375 C 13.976562 -4.960938 14.359375 -5.066406 14.703125 -5.171875 C 15.054688 -5.285156 15.347656 -5.390625 15.578125 -5.484375 C 15.816406 -5.578125 15.96875 -5.632812 16.03125 -5.65625 L 16.03125 -11.421875 L 11.875 -11.140625 C 10.675781 -11.046875 9.789062 -10.738281 9.21875 -10.21875 C 8.65625 -9.695312 8.375 -8.992188 8.375 -8.109375 L 8.375 -7.09375 C 8.375 -6.476562 8.503906 -5.96875 8.765625 -5.5625 C 9.023438 -5.164062 9.378906 -4.882812 9.828125 -4.71875 C 10.273438 -4.550781 10.773438 -4.46875 11.328125 -4.46875 Z M 11.328125 -4.46875 "/></g></g></g><g fill="#ff5d1d" fill-opacity="1"><g transform="translate(109.904042, 39.729842)"><g><path d="M 12.015625 0 C 10.109375 0 8.566406 -0.273438 7.390625 -0.828125 C 6.210938 -1.378906 5.359375 -2.300781 4.828125 -3.59375 C 4.304688 -4.882812 4.078125 -6.617188 4.140625 -8.796875 L 4.375 -19.25 L 0.5 -19.25 L 0.5 -23.625 L 4.609375 -24.734375 L 5.53125 -31.640625 L 10.90625 -31.640625 L 10.90625 -24.734375 L 16.71875 -24.734375 L 16.71875 -19.25 L 10.90625 -19.25 L 10.90625 -8.84375 C 10.90625 -8.164062 10.96875 -7.609375 11.09375 -7.171875 C 11.21875 -6.742188 11.394531 -6.398438 11.625 -6.140625 C 11.851562 -5.878906 12.117188 -5.6875 12.421875 -5.5625 C 12.734375 -5.445312 13.046875 -5.375 13.359375 -5.34375 L 16.484375 -5.0625 L 16.484375 0 Z M 12.015625 0 "/></g></g></g><g fill="#ff5d1d" fill-opacity="1"><g transform="translate(126.203794, 39.729842)"><g><path d="M 13.03125 0.234375 C 10.300781 0.234375 8.117188 -0.125 6.484375 -0.84375 C 4.859375 -1.570312 3.6875 -2.851562 2.96875 -4.6875 C 2.25 -6.53125 1.890625 -9.082031 1.890625 -12.34375 C 1.890625 -15.6875 2.222656 -18.28125 2.890625 -20.125 C 3.566406 -21.96875 4.703125 -23.253906 6.296875 -23.984375 C 7.898438 -24.722656 10.066406 -25.09375 12.796875 -25.09375 C 15.253906 -25.09375 17.21875 -24.847656 18.6875 -24.359375 C 20.164062 -23.867188 21.234375 -23.007812 21.890625 -21.78125 C 22.554688 -20.550781 22.890625 -18.816406 22.890625 -16.578125 C 22.890625 -14.921875 22.554688 -13.609375 21.890625 -12.640625 C 21.234375 -11.671875 20.304688 -10.976562 19.109375 -10.5625 C 17.910156 -10.15625 16.5 -9.953125 14.875 -9.953125 L 8.65625 -9.953125 C 8.71875 -8.691406 8.910156 -7.679688 9.234375 -6.921875 C 9.554688 -6.171875 10.15625 -5.632812 11.03125 -5.3125 C 11.90625 -4.988281 13.171875 -4.828125 14.828125 -4.828125 L 22.0625 -4.828125 L 22.0625 -0.828125 C 20.863281 -0.578125 19.550781 -0.335938 18.125 -0.109375 C 16.695312 0.117188 15 0.234375 13.03125 0.234375 Z M 8.5625 -14 L 14.1875 -14 C 15.101562 -14 15.773438 -14.179688 16.203125 -14.546875 C 16.640625 -14.921875 16.859375 -15.582031 16.859375 -16.53125 C 16.859375 -17.414062 16.71875 -18.128906 16.4375 -18.671875 C 16.164062 -19.210938 15.738281 -19.597656 15.15625 -19.828125 C 14.570312 -20.054688 13.785156 -20.171875 12.796875 -20.171875 C 11.753906 -20.171875 10.925781 -19.992188 10.3125 -19.640625 C 9.695312 -19.285156 9.25 -18.660156 8.96875 -17.765625 C 8.695312 -16.878906 8.5625 -15.625 8.5625 -14 Z M 8.5625 -14 "/></g></g></g><g fill="#ff5d1d" fill-opacity="1"><g transform="translate(149.318236, 39.729842)"><g><path d="M 2.625 0 L 2.625 -24.734375 L 7.875 -24.734375 L 9.4375 -20.953125 C 10.332031 -22.085938 11.335938 -23.050781 12.453125 -23.84375 C 13.578125 -24.644531 14.90625 -25.046875 16.4375 -25.046875 C 16.769531 -25.046875 17.113281 -25.03125 17.46875 -25 C 17.820312 -24.96875 18.15625 -24.90625 18.46875 -24.8125 L 18.46875 -17.8125 C 18.007812 -17.875 17.523438 -17.925781 17.015625 -17.96875 C 16.503906 -18.019531 16.019531 -18.046875 15.5625 -18.046875 C 14.675781 -18.046875 13.867188 -17.945312 13.140625 -17.75 C 12.421875 -17.550781 11.757812 -17.257812 11.15625 -16.875 C 10.5625 -16.488281 9.988281 -15.988281 9.4375 -15.375 L 9.4375 0 Z M 2.625 0 "/></g></g></g><g fill="#ff5d1d" fill-opacity="1"><g transform="translate(167.183532, 39.729842)"><g><path d="M 3.453125 -28.359375 C 2.804688 -28.359375 2.484375 -28.664062 2.484375 -29.28125 L 2.484375 -33.796875 C 2.484375 -34.441406 2.804688 -34.765625 3.453125 -34.765625 L 8.703125 -34.765625 C 8.984375 -34.765625 9.195312 -34.671875 9.34375 -34.484375 C 9.5 -34.304688 9.578125 -34.078125 9.578125 -33.796875 L 9.578125 -29.28125 C 9.578125 -28.664062 9.285156 -28.359375 8.703125 -28.359375 Z M 2.625 0 L 2.625 -24.734375 L 9.4375 -24.734375 L 9.4375 0 Z M 2.625 0 "/></g></g></g><g fill="#ff5d1d" fill-opacity="1"><g transform="translate(177.635552, 39.729842)"><g><path d="M 7.875 0.28125 C 6 0.28125 4.476562 -0.269531 3.3125 -1.375 C 2.144531 -2.488281 1.5625 -4.023438 1.5625 -5.984375 L 1.5625 -8.203125 C 1.5625 -10.066406 2.222656 -11.601562 3.546875 -12.8125 C 4.867188 -14.03125 6.925781 -14.640625 9.71875 -14.640625 L 16.03125 -14.640625 L 16.03125 -16.34375 C 16.03125 -17.113281 15.890625 -17.75 15.609375 -18.25 C 15.335938 -18.757812 14.820312 -19.128906 14.0625 -19.359375 C 13.3125 -19.585938 12.171875 -19.703125 10.640625 -19.703125 L 3.21875 -19.703125 L 3.21875 -23.671875 C 4.414062 -24.035156 5.804688 -24.351562 7.390625 -24.625 C 8.972656 -24.90625 10.882812 -25.046875 13.125 -25.046875 C 15.175781 -25.046875 16.929688 -24.800781 18.390625 -24.3125 C 19.847656 -23.820312 20.953125 -22.976562 21.703125 -21.78125 C 22.460938 -20.582031 22.84375 -18.925781 22.84375 -16.8125 L 22.84375 0 L 17.453125 0 L 16.34375 -2.625 C 16.132812 -2.375 15.765625 -2.09375 15.234375 -1.78125 C 14.710938 -1.476562 14.078125 -1.164062 13.328125 -0.84375 C 12.578125 -0.53125 11.734375 -0.265625 10.796875 -0.046875 C 9.859375 0.171875 8.882812 0.28125 7.875 0.28125 Z M 11.328125 -4.46875 C 11.628906 -4.46875 11.972656 -4.503906 12.359375 -4.578125 C 12.742188 -4.660156 13.144531 -4.753906 13.5625 -4.859375 C 13.976562 -4.960938 14.359375 -5.066406 14.703125 -5.171875 C 15.054688 -5.285156 15.347656 -5.390625 15.578125 -5.484375 C 15.816406 -5.578125 15.96875 -5.632812 16.03125 -5.65625 L 16.03125 -11.421875 L 11.875 -11.140625 C 10.675781 -11.046875 9.789062 -10.738281 9.21875 -10.21875 C 8.65625 -9.695312 8.375 -8.992188 8.375 -8.109375 L 8.375 -7.09375 C 8.375 -6.476562 8.503906 -5.96875 8.765625 -5.5625 C 9.023438 -5.164062 9.378906 -4.882812 9.828125 -4.71875 C 10.273438 -4.550781 10.773438 -4.46875 11.328125 -4.46875 Z M 11.328125 -4.46875 "/></g></g></g><g fill="#ff5d1d" fill-opacity="1"><g transform="translate(201.348592, 39.729842)"><g><path d="M 11.609375 0.28125 C 10.835938 0.28125 10.003906 0.253906 9.109375 0.203125 C 8.222656 0.160156 7.332031 0.09375 6.4375 0 C 5.550781 -0.09375 4.722656 -0.207031 3.953125 -0.34375 C 3.191406 -0.476562 2.550781 -0.640625 2.03125 -0.828125 L 2.03125 -4.828125 L 12.984375 -4.828125 C 13.628906 -4.828125 14.160156 -4.878906 14.578125 -4.984375 C 14.992188 -5.097656 15.300781 -5.300781 15.5 -5.59375 C 15.695312 -5.882812 15.796875 -6.304688 15.796875 -6.859375 L 15.796875 -7.640625 C 15.796875 -8.253906 15.59375 -8.726562 15.1875 -9.0625 C 14.789062 -9.40625 14.054688 -9.578125 12.984375 -9.578125 L 9.125 -9.578125 C 7.707031 -9.578125 6.429688 -9.789062 5.296875 -10.21875 C 4.160156 -10.644531 3.257812 -11.347656 2.59375 -12.328125 C 1.9375 -13.316406 1.609375 -14.640625 1.609375 -16.296875 L 1.609375 -17.734375 C 1.609375 -19.296875 1.914062 -20.613281 2.53125 -21.6875 C 3.144531 -22.757812 4.171875 -23.570312 5.609375 -24.125 C 7.054688 -24.675781 9.039062 -24.953125 11.5625 -24.953125 C 12.570312 -24.953125 13.648438 -24.898438 14.796875 -24.796875 C 15.953125 -24.691406 17.039062 -24.550781 18.0625 -24.375 C 19.09375 -24.207031 19.914062 -24.019531 20.53125 -23.8125 L 20.53125 -19.796875 L 10.171875 -19.796875 C 9.285156 -19.796875 8.609375 -19.648438 8.140625 -19.359375 C 7.679688 -19.066406 7.453125 -18.523438 7.453125 -17.734375 L 7.453125 -16.984375 C 7.453125 -16.429688 7.5625 -16.023438 7.78125 -15.765625 C 8 -15.503906 8.328125 -15.320312 8.765625 -15.21875 C 9.210938 -15.113281 9.773438 -15.0625 10.453125 -15.0625 L 14.40625 -15.0625 C 16.925781 -15.0625 18.757812 -14.484375 19.90625 -13.328125 C 21.0625 -12.179688 21.640625 -10.59375 21.640625 -8.5625 L 21.640625 -6.359375 C 21.640625 -4.703125 21.25 -3.390625 20.46875 -2.421875 C 19.6875 -1.453125 18.550781 -0.757812 17.0625 -0.34375 C 15.570312 0.0703125 13.753906 0.28125 11.609375 0.28125 Z M 11.609375 0.28125 "/></g></g></g></svg>