<svg version="1.2" xmlns="http://www.w3.org/2000/svg" viewBox="0 0 300 66" width="300" height="66"><style>.a{fill:#2c2e35}</style><path fill-rule="evenodd" class="a" d="m86.7 33.3q0-2.6 1-5.1 0.9-2.5 2.6-4.4 1.8-2 4.4-3.2 2.5-1.2 5.8-1.2 3.8 0 6.6 1.7 2.8 1.7 4.2 4.4l-4.2 2.8q-0.5-1.1-1.3-1.9-0.8-0.9-1.7-1.3-0.9-0.5-1.9-0.7-1-0.2-1.9-0.2-2 0-3.5 0.8-1.6 0.8-2.6 2.1-1 1.3-1.5 3-0.5 1.7-0.5 3.3 0 1.9 0.6 3.6 0.6 1.7 1.7 3 1.1 1.3 2.6 2.1 1.5 0.7 3.3 0.7 0.9 0 1.9-0.2 1.1-0.2 2-0.7 0.9-0.5 1.7-1.4 0.8-0.8 1.2-1.9l4.5 2.6q-0.7 1.5-1.9 2.7-1.3 1.2-2.8 2-1.6 0.9-3.3 1.3-1.8 0.4-3.5 0.4-3 0-5.4-1.2-2.5-1.3-4.3-3.3-1.8-2-2.8-4.6-1-2.6-1-5.2zm28.6 14.1v-27.9h5.4v23.1h14.2v4.8zm53.7-7.2q0 1.8-0.7 3.1-0.7 1.3-1.9 2.2-1.3 1-2.9 1.4-1.6 0.5-3.5 0.5h-13.4v-27.9h14.9q1.4 0 2.6 0.7 1.2 0.6 2 1.6 0.8 1 1.3 2.3 0.4 1.3 0.4 2.5 0 2.1-1 3.9-1 1.8-3 2.6 2.4 0.7 3.8 2.5 1.4 1.9 1.4 4.6zm-5.4-1q0-0.8-0.3-1.4-0.2-0.7-0.7-1.2-0.4-0.5-1-0.8-0.6-0.3-1.3-0.3h-8.3v7.3h8q0.8 0 1.4-0.3 0.7-0.2 1.2-0.7 0.4-0.5 0.7-1.2 0.3-0.7 0.3-1.4zm-11.6-15v7h7.2q1.4 0 2.4-0.9 0.9-1 0.9-2.6 0-1.6-0.9-2.6-0.9-0.9-2.1-0.9zm26.3 23.6q-1.5 0-2.8-0.5-1.3-0.5-2.2-1.4-1-0.9-1.5-2-0.5-1.2-0.5-2.6 0-1.5 0.6-2.7 0.7-1.2 1.8-2.1 1.2-0.9 2.8-1.4 1.6-0.5 3.5-0.5 1.4 0 2.7 0.3 1.3 0.2 2.4 0.6v-1.1q0-2.1-1.2-3.2-1.2-1.1-3.4-1.1-1.7 0-3.2 0.6-1.6 0.6-3.3 1.7l-1.6-3.3q4-2.6 8.6-2.6 4.4 0 6.9 2.2 2.4 2.1 2.4 6.3v6.4q0 0.8 0.3 1.1 0.3 0.4 1 0.4v4.5q-1.4 0.3-2.3 0.3-1.5 0-2.3-0.7-0.8-0.7-1-1.8l-0.2-1.1q-1.3 1.8-3.3 2.7-2 1-4.2 1zm1.5-3.9q1.3 0 2.5-0.4 1.2-0.5 1.9-1.3 0.9-0.7 0.9-1.5v-2.3q-1-0.4-2.1-0.6-1.1-0.2-2.1-0.2-2 0-3.3 0.9-1.3 0.9-1.3 2.3 0 1.4 1 2.3 1 0.8 2.5 0.8zm27.6 2.4q-1.1 0.5-2.6 1-1.5 0.4-3.2 0.4-1.1 0-2.1-0.2-1-0.3-1.7-0.9-0.7-0.6-1.1-1.6-0.5-0.9-0.5-2.3v-11.8h-2.7v-4.1h2.7v-6.6h5.3v6.6h4.3v4.1h-4.3v10q0 1.1 0.6 1.6 0.5 0.4 1.3 0.4 0.9 0 1.7-0.3 0.7-0.2 1.2-0.4zm11.8 1.4q-2.5 0-4.5-0.8-2-0.9-3.4-2.3-1.4-1.5-2.2-3.4-0.7-1.9-0.7-4 0-2.2 0.7-4.2 0.7-1.9 2.2-3.4 1.4-1.4 3.4-2.3 2-0.9 4.5-0.9 2.5 0 4.5 0.9 2 0.9 3.4 2.3 1.4 1.5 2.1 3.4 0.7 1.9 0.7 4 0 0.5 0 1 0 0.4-0.1 0.7h-15.9q0.1 1.3 0.6 2.2 0.5 0.9 1.2 1.6 0.8 0.7 1.7 1 1 0.4 2 0.4 1.5 0 2.9-0.8 1.4-0.7 1.9-2l4.5 1.3q-1.1 2.3-3.6 3.8-2.5 1.5-5.9 1.5zm5.3-12.4q-0.2-2.3-1.7-3.7-1.5-1.4-3.7-1.4-1 0-1.9 0.4-1 0.4-1.7 1-0.7 0.7-1.1 1.7-0.5 0.9-0.6 2zm20.9-4q-2.4 0.1-4.3 1-1.9 0.8-2.7 2.6v12.4h-5.2v-20.5h4.8v4.4q0.5-1.1 1.3-1.9 0.7-0.9 1.6-1.5 0.9-0.6 1.7-1 0.9-0.3 1.7-0.3 0.5 0 0.7 0 0.2 0 0.4 0zm2.9-4.5h5.3v20.5h-5.3zm0-8h5.3v5.2h-5.3zm15.7 29q-1.5 0-2.8-0.5-1.3-0.5-2.3-1.4-0.9-0.8-1.4-2-0.6-1.2-0.6-2.6 0-1.5 0.7-2.7 0.6-1.2 1.8-2.1 1.1-0.8 2.8-1.3 1.6-0.5 3.5-0.5 1.4 0 2.7 0.2 1.3 0.2 2.3 0.7v-1.2q0-2-1.2-3.1-1.1-1.1-3.4-1.1-1.6 0-3.2 0.5-1.6 0.6-3.2 1.8l-1.6-3.4q3.9-2.6 8.5-2.6 4.5 0 6.9 2.2 2.5 2.2 2.5 6.3v6.4q0 0.8 0.3 1.2 0.2 0.3 0.9 0.3v4.5q-1.3 0.3-2.3 0.3-1.5 0-2.3-0.7-0.8-0.6-1-1.7l-0.1-1.2q-1.4 1.8-3.3 2.8-2 0.9-4.2 0.9zm1.4-3.8q1.4 0 2.6-0.5 1.2-0.5 1.8-1.3 0.9-0.6 0.9-1.5v-2.3q-0.9-0.4-2-0.6-1.1-0.2-2.2-0.2-2 0-3.3 0.9-1.3 1-1.3 2.4 0 1.3 1 2.2 1.1 0.9 2.5 0.9zm23.2 3.8q-2.6 0-5-0.8-2.5-0.8-4.3-2.4l2-3.3q1.9 1.4 3.7 2.1 1.7 0.6 3.5 0.6 1.6 0 2.5-0.5 0.9-0.6 0.9-1.7 0-1.1-1.1-1.6-1-0.5-3.4-1.2-2-0.6-3.4-1.1-1.5-0.5-2.3-1.1-0.9-0.7-1.3-1.5-0.4-0.9-0.4-2 0-1.6 0.6-2.9 0.7-1.2 1.8-2.1 1-0.9 2.5-1.4 1.5-0.4 3.2-0.4 2.3 0 4.3 0.6 2.1 0.7 3.8 2.2l-2.2 3.2q-1.5-1.2-3-1.8-1.5-0.5-2.9-0.5-1.4 0-2.3 0.5-0.9 0.6-0.9 1.8 0 0.6 0.3 0.9 0.2 0.4 0.6 0.6 0.5 0.3 1.3 0.6 0.7 0.2 1.9 0.5 2.1 0.6 3.6 1.1 1.5 0.5 2.5 1.3 0.9 0.7 1.4 1.6 0.4 0.9 0.4 2.2 0 3-2.2 4.8-2.2 1.7-6.1 1.7zm-224.8-25.8h-59.7c-0.7 0-1.2-0.5-1.2-1.2v-5.8c0-0.7 0.5-1.2 1.2-1.2h14.7v-4.5c0-0.7 0.6-1.2 1.3-1.2h27.8c0.7 0 1.3 0.5 1.3 1.2v4.5h14.6c0.7 0 1.3 0.5 1.3 1.2v5.8c0 0.7-0.6 1.2-1.3 1.2zm-2.3 38.1h-55.1c-1.1 0-2.1-1-2.1-2.1v-34h59.4v34c0 1.1-1 2.1-2.2 2.1zm-17.6-29c0-0.5-0.4-0.9-0.9-0.9h-8.9v8h5.5l-8.1 15.8q9.6 0 19.1 0c0.5 0 0.9-0.5 0.9-1v-7.2c0-0.5-0.4-0.9-0.9-0.9h-6.7zm-27.4 10.9c0 6.6 5.3 11.9 11.9 11.9h0.9v-7.9h-5.5l8.2-15.9h-3.6c-6.6 0-11.9 5.4-11.9 11.9zm35.7-32c0-0.6 0.5-1.1 1.1-1.1v-1.3c0-0.6 0.5-1.1 1.1-1.1h4.4c0.5 0 1 0.5 1 1.1v1.3h0.1c0.5 0 1 0.5 1 1.1v2h-8.7zm-36.4 2.1h-8.7v-2.1c0-0.5 0.4-1 1-1v-1.4c0-0.6 0.5-1.1 1.1-1.1h4.4c0.6 0 1 0.5 1 1.1v1.4h0.1c0.6 0 1.1 0.5 1.1 1z"/></svg>