<svg xmlns="http://www.w3.org/2000/svg" xmlns:xlink="http://www.w3.org/1999/xlink" width="300" zoomAndPan="magnify" viewBox="0 0 224.87999 49.499998" height="66" preserveAspectRatio="xMidYMid meet" version="1.0"><defs><g/><clipPath id="a668053b7b"><path d="M 1.066406 8 L 21 8 L 21 37 L 1.066406 37 Z M 1.066406 8 " clip-rule="nonzero"/></clipPath></defs><g clip-path="url(#a668053b7b)"><g fill="#ff5d1d" fill-opacity="1"><g transform="translate(0.279678, 36.367296)"><g><path d="M 11.59375 0.21875 C 9.988281 0.21875 8.570312 0.0351562 7.34375 -0.328125 C 6.125 -0.703125 5.085938 -1.382812 4.234375 -2.375 C 3.390625 -3.363281 2.75 -4.773438 2.3125 -6.609375 C 1.882812 -8.453125 1.671875 -10.84375 1.671875 -13.78125 C 1.671875 -16.625 1.898438 -18.953125 2.359375 -20.765625 C 2.816406 -22.585938 3.476562 -24 4.34375 -25 C 5.207031 -26 6.253906 -26.695312 7.484375 -27.09375 C 8.722656 -27.488281 10.117188 -27.6875 11.671875 -27.6875 C 12.910156 -27.6875 14.066406 -27.617188 15.140625 -27.484375 C 16.210938 -27.347656 17.179688 -27.1875 18.046875 -27 C 18.910156 -26.8125 19.640625 -26.609375 20.234375 -26.390625 L 20.234375 -22.125 C 19.785156 -22.226562 19.1875 -22.328125 18.4375 -22.421875 C 17.6875 -22.523438 16.828125 -22.601562 15.859375 -22.65625 C 14.898438 -22.71875 13.890625 -22.75 12.828125 -22.75 C 11.785156 -22.75 10.898438 -22.628906 10.171875 -22.390625 C 9.441406 -22.160156 8.859375 -21.726562 8.421875 -21.09375 C 7.992188 -20.46875 7.675781 -19.5625 7.46875 -18.375 C 7.257812 -17.195312 7.15625 -15.65625 7.15625 -13.75 C 7.15625 -11.914062 7.242188 -10.40625 7.421875 -9.21875 C 7.609375 -8.039062 7.910156 -7.125 8.328125 -6.46875 C 8.753906 -5.8125 9.332031 -5.351562 10.0625 -5.09375 C 10.789062 -4.832031 11.710938 -4.703125 12.828125 -4.703125 C 14.703125 -4.703125 16.222656 -4.738281 17.390625 -4.8125 C 18.566406 -4.882812 19.515625 -4.972656 20.234375 -5.078125 L 20.234375 -0.859375 C 19.566406 -0.628906 18.800781 -0.429688 17.9375 -0.265625 C 17.070312 -0.109375 16.117188 0.0078125 15.078125 0.09375 C 14.046875 0.175781 12.882812 0.21875 11.59375 0.21875 Z M 11.59375 0.21875 "/></g></g></g></g><g fill="#ff5d1d" fill-opacity="1"><g transform="translate(22.000116, 36.367296)"><g><path d="M 8.859375 0 C 7.453125 0 6.257812 -0.210938 5.28125 -0.640625 C 4.300781 -1.078125 3.570312 -1.769531 3.09375 -2.71875 C 2.613281 -3.675781 2.375 -4.929688 2.375 -6.484375 L 2.375 -27.421875 L 7.859375 -27.421875 L 7.859375 -7.375 C 7.859375 -6.78125 7.960938 -6.296875 8.171875 -5.921875 C 8.378906 -5.554688 8.664062 -5.304688 9.03125 -5.171875 C 9.40625 -5.035156 9.828125 -4.96875 10.296875 -4.96875 L 18.96875 -4.96875 L 18.96875 0 Z M 8.859375 0 "/></g></g></g><g fill="#ff5d1d" fill-opacity="1"><g transform="translate(41.830215, 36.367296)"><g/></g></g><g fill="#ff5d1d" fill-opacity="1"><g transform="translate(51.393134, 36.367296)"><g><path d="M 2.375 0 L 2.375 -27.421875 L 13.15625 -27.421875 C 15.875 -27.421875 17.859375 -26.796875 19.109375 -25.546875 C 20.359375 -24.304688 20.984375 -22.535156 20.984375 -20.234375 C 20.984375 -19.148438 20.828125 -18.191406 20.515625 -17.359375 C 20.203125 -16.535156 19.757812 -15.859375 19.1875 -15.328125 C 18.625 -14.796875 17.945312 -14.429688 17.15625 -14.234375 C 17.75 -14.085938 18.320312 -13.851562 18.875 -13.53125 C 19.4375 -13.207031 19.945312 -12.773438 20.40625 -12.234375 C 20.863281 -11.691406 21.21875 -11.03125 21.46875 -10.25 C 21.726562 -9.46875 21.859375 -8.570312 21.859375 -7.5625 C 21.859375 -5.707031 21.546875 -4.222656 20.921875 -3.109375 C 20.296875 -2.003906 19.367188 -1.207031 18.140625 -0.71875 C 16.921875 -0.238281 15.421875 0 13.640625 0 Z M 7.859375 -4.921875 L 13.484375 -4.921875 C 14.128906 -4.921875 14.6875 -5.046875 15.15625 -5.296875 C 15.625 -5.546875 15.988281 -5.929688 16.25 -6.453125 C 16.507812 -6.972656 16.640625 -7.664062 16.640625 -8.53125 C 16.640625 -9.238281 16.503906 -9.835938 16.234375 -10.328125 C 15.960938 -10.828125 15.59375 -11.210938 15.125 -11.484375 C 14.65625 -11.753906 14.109375 -11.890625 13.484375 -11.890625 L 7.859375 -11.890625 Z M 7.859375 -16.125 L 13.1875 -16.125 C 13.976562 -16.125 14.601562 -16.410156 15.0625 -16.984375 C 15.519531 -17.566406 15.75 -18.328125 15.75 -19.265625 C 15.769531 -20.484375 15.519531 -21.328125 15 -21.796875 C 14.488281 -22.265625 13.863281 -22.5 13.125 -22.5 L 7.859375 -22.5 Z M 7.859375 -16.125 "/></g></g></g><g fill="#ff5d1d" fill-opacity="1"><g transform="translate(74.633261, 36.367296)"><g><path d="M 0.625 0 L 9.234375 -27.421875 L 16.15625 -27.421875 L 24.75 0 L 19.046875 0 L 17.3125 -5.75 L 7.96875 -5.75 L 6.265625 0 Z M 9.265625 -10.671875 L 16.015625 -10.671875 L 12.640625 -22.71875 Z M 9.265625 -10.671875 "/></g></g></g><g fill="#ff5d1d" fill-opacity="1"><g transform="translate(100.023198, 36.367296)"><g><path d="M 8.109375 0 L 8.109375 -22.5 L 0.59375 -22.5 L 0.59375 -27.421875 L 21.15625 -27.421875 L 21.15625 -22.5 L 13.609375 -22.5 L 13.609375 0 Z M 8.109375 0 "/></g></g></g><g fill="#ff5d1d" fill-opacity="1"><g transform="translate(121.780705, 36.367296)"><g><path d="M 9.046875 0.1875 C 8.453125 0.1875 7.769531 0.128906 7 0.015625 C 6.238281 -0.0859375 5.503906 -0.335938 4.796875 -0.734375 C 4.097656 -1.128906 3.519531 -1.726562 3.0625 -2.53125 C 2.601562 -3.34375 2.375 -4.453125 2.375 -5.859375 L 2.375 -21.15625 C 2.375 -22.375 2.554688 -23.390625 2.921875 -24.203125 C 3.296875 -25.015625 3.789062 -25.65625 4.40625 -26.125 C 5.03125 -26.59375 5.710938 -26.925781 6.453125 -27.125 C 7.191406 -27.320312 7.921875 -27.421875 8.640625 -27.421875 C 10.492188 -27.421875 12.128906 -27.394531 13.546875 -27.34375 C 14.960938 -27.300781 16.238281 -27.25 17.375 -27.1875 C 18.519531 -27.125 19.5625 -27.039062 20.5 -26.9375 L 20.5 -22.34375 L 10.265625 -22.34375 C 9.503906 -22.34375 8.910156 -22.15625 8.484375 -21.78125 C 8.066406 -21.414062 7.859375 -20.851562 7.859375 -20.09375 L 7.859375 -16.125 L 18.71875 -15.828125 L 18.71875 -11.484375 L 7.859375 -11.1875 L 7.859375 -7.40625 C 7.859375 -6.769531 7.960938 -6.269531 8.171875 -5.90625 C 8.378906 -5.550781 8.660156 -5.304688 9.015625 -5.171875 C 9.378906 -5.035156 9.757812 -4.96875 10.15625 -4.96875 L 20.5 -4.96875 L 20.5 -0.375 C 19.40625 -0.25 18.195312 -0.148438 16.875 -0.078125 C 15.5625 -0.00390625 14.226562 0.0546875 12.875 0.109375 C 11.53125 0.160156 10.253906 0.1875 9.046875 0.1875 Z M 9.046875 0.1875 "/></g></g></g><g fill="#ff5d1d" fill-opacity="1"><g transform="translate(143.908865, 36.367296)"><g><path d="M 2.375 0 L 2.375 -27.421875 L 13.71875 -27.421875 C 14.800781 -27.421875 15.8125 -27.289062 16.75 -27.03125 C 17.6875 -26.769531 18.515625 -26.316406 19.234375 -25.671875 C 19.953125 -25.035156 20.515625 -24.148438 20.921875 -23.015625 C 21.328125 -21.878906 21.53125 -20.421875 21.53125 -18.640625 C 21.53125 -17.378906 21.40625 -16.300781 21.15625 -15.40625 C 20.914062 -14.519531 20.585938 -13.789062 20.171875 -13.21875 C 19.765625 -12.65625 19.300781 -12.203125 18.78125 -11.859375 C 18.269531 -11.515625 17.742188 -11.226562 17.203125 -11 L 22.3125 0 L 16.71875 0 L 12.3125 -10.15625 C 12.007812 -10.15625 11.664062 -10.160156 11.28125 -10.171875 C 10.90625 -10.179688 10.519531 -10.1875 10.125 -10.1875 C 9.726562 -10.1875 9.332031 -10.1875 8.9375 -10.1875 C 8.539062 -10.1875 8.179688 -10.203125 7.859375 -10.234375 L 7.859375 0 Z M 7.859375 -14.5625 L 12.75 -14.5625 C 13.238281 -14.5625 13.679688 -14.625 14.078125 -14.75 C 14.472656 -14.875 14.816406 -15.085938 15.109375 -15.390625 C 15.410156 -15.703125 15.640625 -16.117188 15.796875 -16.640625 C 15.960938 -17.160156 16.046875 -17.828125 16.046875 -18.640625 C 16.046875 -19.410156 15.960938 -20.046875 15.796875 -20.546875 C 15.640625 -21.054688 15.410156 -21.453125 15.109375 -21.734375 C 14.816406 -22.015625 14.472656 -22.210938 14.078125 -22.328125 C 13.679688 -22.441406 13.238281 -22.5 12.75 -22.5 L 7.859375 -22.5 Z M 7.859375 -14.5625 "/></g></g></g><g fill="#ff5d1d" fill-opacity="1"><g transform="translate(167.148991, 36.367296)"><g><path d="M 2.375 0 L 2.375 -27.421875 L 7.859375 -27.421875 L 7.859375 0 Z M 2.375 0 "/></g></g></g><g fill="#ff5d1d" fill-opacity="1"><g transform="translate(177.379101, 36.367296)"><g><path d="M 0.625 0 L 9.234375 -27.421875 L 16.15625 -27.421875 L 24.75 0 L 19.046875 0 L 17.3125 -5.75 L 7.96875 -5.75 L 6.265625 0 Z M 9.265625 -10.671875 L 16.015625 -10.671875 L 12.640625 -22.71875 Z M 9.265625 -10.671875 "/></g></g></g><g fill="#ff5d1d" fill-opacity="1"><g transform="translate(202.769026, 36.367296)"><g><path d="M 10.640625 0.21875 C 9.921875 0.21875 9.179688 0.195312 8.421875 0.15625 C 7.671875 0.125 6.90625 0.0664062 6.125 -0.015625 C 5.351562 -0.0976562 4.617188 -0.195312 3.921875 -0.3125 C 3.234375 -0.425781 2.601562 -0.554688 2.03125 -0.703125 L 2.03125 -5.046875 C 2.78125 -4.960938 3.625 -4.894531 4.5625 -4.84375 C 5.5 -4.800781 6.472656 -4.765625 7.484375 -4.734375 C 8.492188 -4.710938 9.457031 -4.703125 10.375 -4.703125 C 11.3125 -4.703125 12.117188 -4.78125 12.796875 -4.9375 C 13.484375 -5.101562 14.007812 -5.390625 14.375 -5.796875 C 14.75 -6.203125 14.9375 -6.765625 14.9375 -7.484375 L 14.9375 -8.484375 C 14.9375 -9.296875 14.691406 -9.914062 14.203125 -10.34375 C 13.722656 -10.78125 13.039062 -11 12.15625 -11 L 9.828125 -11 C 7.203125 -11 5.191406 -11.570312 3.796875 -12.71875 C 2.398438 -13.875 1.703125 -15.835938 1.703125 -18.609375 L 1.703125 -19.9375 C 1.703125 -22.601562 2.46875 -24.554688 4 -25.796875 C 5.53125 -27.035156 7.71875 -27.65625 10.5625 -27.65625 C 11.570312 -27.65625 12.578125 -27.601562 13.578125 -27.5 C 14.578125 -27.40625 15.539062 -27.285156 16.46875 -27.140625 C 17.394531 -27.003906 18.191406 -26.863281 18.859375 -26.71875 L 18.859375 -22.390625 C 17.722656 -22.460938 16.457031 -22.535156 15.0625 -22.609375 C 13.664062 -22.679688 12.375 -22.71875 11.1875 -22.71875 C 10.351562 -22.71875 9.609375 -22.632812 8.953125 -22.46875 C 8.296875 -22.3125 7.796875 -22.007812 7.453125 -21.5625 C 7.109375 -21.125 6.9375 -20.5 6.9375 -19.6875 L 6.9375 -18.9375 C 6.9375 -17.976562 7.207031 -17.285156 7.75 -16.859375 C 8.289062 -16.441406 9.09375 -16.234375 10.15625 -16.234375 L 12.859375 -16.234375 C 14.515625 -16.234375 15.878906 -15.929688 16.953125 -15.328125 C 18.023438 -14.722656 18.828125 -13.890625 19.359375 -12.828125 C 19.890625 -11.765625 20.15625 -10.550781 20.15625 -9.1875 L 20.15625 -7.640625 C 20.15625 -5.484375 19.753906 -3.835938 18.953125 -2.703125 C 18.148438 -1.566406 17.035156 -0.796875 15.609375 -0.390625 C 14.191406 0.015625 12.535156 0.21875 10.640625 0.21875 Z M 10.640625 0.21875 "/></g></g></g></svg>