<svg xmlns="http://www.w3.org/2000/svg" xmlns:xlink="http://www.w3.org/1999/xlink" width="189" zoomAndPan="magnify" viewBox="0 0 141.75 112.499997" height="150" preserveAspectRatio="xMidYMid meet" version="1.0"><defs><filter x="0%" y="0%" width="100%" height="100%" id="fed2cac52b"><feColorMatrix values="0 0 0 0 1 0 0 0 0 1 0 0 0 0 1 0 0 0 1 0" color-interpolation-filters="sRGB"/></filter><clipPath id="7f565e5994"><path d="M 14 0 L 128 0 L 128 112.003906 L 14 112.003906 Z M 14 0 " clip-rule="nonzero"/></clipPath><mask id="25fd188f11"><g filter="url(#fed2cac52b)"><rect x="-14.175" width="170.1" fill="#000000" y="-11.25" height="134.999996" fill-opacity="0.6"/></g></mask><clipPath id="1162092c20"><path d="M 0.75 0 L 112.75 0 L 112.75 112.003906 L 0.75 112.003906 Z M 0.75 0 " clip-rule="nonzero"/></clipPath><clipPath id="e9ce5e0e0b"><rect x="0" width="114" y="0" height="113"/></clipPath></defs><g clip-path="url(#7f565e5994)"><g mask="url(#25fd188f11)"><g transform="matrix(1, 0, 0, 1, 14, 0)"><g clip-path="url(#e9ce5e0e0b)"><g clip-path="url(#1162092c20)"><path fill="#ff4400" d="M 56.753906 112.007812 C 87.597656 112.007812 112.757812 86.847656 112.757812 56.003906 C 112.757812 25.15625 87.597656 0 56.753906 0 C 25.90625 0 0.75 25.15625 0.75 56.003906 C 0.75 86.847656 25.90625 112.007812 56.753906 112.007812 " fill-opacity="1" fill-rule="evenodd"/></g><path fill="#ffffff" d="M 46.867188 72.105469 C 46.652344 74.105469 45.75 75.96875 44.300781 77.394531 C 42.621094 79.046875 40.367188 79.960938 38.011719 79.960938 C 35.65625 79.960938 33.402344 79.046875 31.722656 77.394531 C 30.273438 75.96875 29.371094 74.105469 29.15625 72.105469 L 27.347656 72.105469 C 26.011719 72.105469 24.726562 71.601562 23.753906 70.683594 C 22.761719 69.75 22.1875 68.464844 22.1875 67.097656 L 22.1875 37.054688 C 22.1875 35.6875 22.761719 34.402344 23.753906 33.46875 C 24.726562 32.550781 26.011719 32.046875 27.347656 32.046875 L 62.640625 32.046875 C 63.976562 32.046875 65.265625 32.550781 66.234375 33.46875 C 67.226562 34.402344 67.800781 35.6875 67.800781 37.054688 L 67.800781 44.171875 L 78.355469 44.171875 C 79.726562 44.171875 81.003906 45.765625 81.8125 46.730469 C 82.992188 48.136719 84.097656 49.636719 85.175781 51.125 C 86.296875 52.671875 87.394531 54.238281 88.488281 55.804688 C 88.902344 56.402344 89.316406 57.011719 89.742188 57.597656 L 89.902344 57.816406 L 90.277344 58.941406 L 90.277344 59.878906 C 90.917969 60.480469 91.316406 61.332031 91.316406 62.273438 L 91.316406 62.917969 C 91.316406 63.863281 90.917969 64.714844 90.277344 65.316406 L 90.277344 67.664062 C 90.277344 68.730469 89.914062 69.78125 89.234375 70.601562 C 88.453125 71.542969 87.332031 72.105469 86.105469 72.105469 L 85.160156 72.105469 C 84.945312 74.105469 84.042969 75.96875 82.59375 77.394531 C 80.914062 79.046875 78.660156 79.960938 76.304688 79.960938 C 73.949219 79.960938 71.695312 79.046875 70.015625 77.394531 C 68.566406 75.96875 67.664062 74.105469 67.449219 72.105469 L 66.503906 72.105469 C 65.175781 72.105469 63.984375 72.105469 62.640625 72.105469 L 46.867188 72.105469 " fill-opacity="1" fill-rule="evenodd"/><path fill="#ff4400" d="M 27.347656 33.796875 L 62.640625 33.796875 C 63.570312 33.796875 64.417969 34.15625 65.035156 34.742188 C 65.660156 35.332031 66.050781 36.152344 66.050781 37.054688 L 66.050781 67.097656 C 66.050781 68 65.660156 68.820312 65.035156 69.410156 C 64.417969 69.992188 63.570312 70.355469 62.640625 70.355469 L 46.148438 70.355469 C 45.960938 68.5 45.128906 66.777344 43.789062 65.457031 C 42.246094 63.9375 40.175781 63.097656 38.011719 63.097656 C 35.847656 63.097656 33.777344 63.9375 32.234375 65.457031 C 30.894531 66.777344 30.0625 68.5 29.875 70.355469 L 27.347656 70.355469 C 26.417969 70.355469 25.574219 69.992188 24.957031 69.410156 C 24.328125 68.820312 23.9375 68 23.9375 67.097656 L 23.9375 37.054688 C 23.9375 36.152344 24.328125 35.332031 24.957031 34.742188 C 25.574219 34.15625 26.417969 33.796875 27.347656 33.796875 Z M 32.890625 57.46875 C 32.316406 57.46875 31.851562 57.925781 31.851562 58.492188 C 31.851562 59.054688 32.316406 59.511719 32.890625 59.511719 L 57.097656 59.511719 C 57.671875 59.511719 58.136719 59.054688 58.136719 58.492188 C 58.136719 57.925781 57.671875 57.46875 57.097656 57.46875 Z M 32.890625 51.054688 C 32.316406 51.054688 31.851562 51.511719 31.851562 52.074219 C 31.851562 52.640625 32.316406 53.097656 32.890625 53.097656 L 57.097656 53.097656 C 57.671875 53.097656 58.136719 52.640625 58.136719 52.074219 C 58.136719 51.511719 57.671875 51.054688 57.097656 51.054688 Z M 32.890625 44.636719 C 32.316406 44.636719 31.851562 45.097656 31.851562 45.660156 C 31.851562 46.222656 32.316406 46.683594 32.890625 46.683594 L 57.097656 46.683594 C 57.671875 46.683594 58.136719 46.222656 58.136719 45.660156 C 58.136719 45.097656 57.671875 44.636719 57.097656 44.636719 L 32.890625 44.636719 " fill-opacity="1" fill-rule="nonzero"/><path fill="#ff4400" d="M 87.085938 60.738281 L 88.027344 60.738281 C 88.875 60.738281 89.566406 61.429688 89.566406 62.273438 L 89.566406 62.917969 C 89.566406 63.765625 88.875 64.457031 88.027344 64.457031 L 87.085938 64.457031 L 87.085938 60.738281 " fill-opacity="1" fill-rule="evenodd"/><path fill="#ff4400" d="M 64.078125 48.613281 L 64.078125 67.664062 C 64.078125 68.363281 64.324219 69.007812 64.722656 69.484375 C 64.753906 69.523438 64.785156 69.5625 64.820312 69.597656 C 65.257812 70.066406 65.847656 70.355469 66.503906 70.355469 L 68.167969 70.355469 C 68.355469 68.5 69.1875 66.777344 70.527344 65.457031 C 72.070312 63.9375 74.140625 63.097656 76.304688 63.097656 C 78.46875 63.097656 80.539062 63.9375 82.082031 65.457031 C 83.421875 66.777344 84.253906 68.5 84.441406 70.355469 L 86.105469 70.355469 C 86.8125 70.355469 87.441406 70.023438 87.886719 69.484375 C 88.28125 69.007812 88.527344 68.363281 88.527344 67.664062 L 88.527344 64.0625 C 88.390625 64.113281 88.238281 64.144531 88.078125 64.144531 L 87.292969 64.144531 L 87.292969 61.050781 L 88.078125 61.050781 C 88.238281 61.050781 88.390625 61.082031 88.527344 61.132812 L 88.527344 59.226562 L 88.328125 58.628906 C 88.175781 58.417969 87.691406 57.726562 87.050781 56.808594 C 84.5 53.148438 79.460938 45.921875 78.355469 45.921875 L 66.503906 45.921875 C 66.347656 45.921875 66.195312 45.9375 66.050781 45.96875 C 65.53125 46.078125 65.070312 46.371094 64.722656 46.792969 C 64.324219 47.269531 64.078125 47.914062 64.078125 48.613281 Z M 82.492188 60.003906 L 72.148438 60.003906 C 71.117188 60.003906 70.179688 59.589844 69.5 58.921875 C 68.820312 58.253906 68.398438 57.332031 68.398438 56.316406 L 68.398438 52.882812 C 68.398438 51.867188 68.820312 50.941406 69.5 50.277344 C 70.179688 49.605469 71.117188 49.191406 72.148438 49.191406 L 77.019531 49.191406 C 77.339844 49.191406 77.65625 49.339844 77.859375 49.613281 L 77.859375 49.617188 C 79.53125 51.878906 81.609375 54.863281 82.964844 56.808594 C 83.339844 57.339844 83.648438 57.78125 83.992188 58.273438 C 84.074219 58.378906 84.140625 58.503906 84.175781 58.640625 C 84.320312 59.1875 83.988281 59.746094 83.433594 59.886719 L 83.429688 59.882812 C 83.28125 59.921875 83.125 59.949219 82.964844 59.972656 C 82.789062 59.992188 82.628906 60.003906 82.492188 60.003906 " fill-opacity="1" fill-rule="evenodd"/><path fill="#ff4400" d="M 76.304688 72.453125 C 75.582031 72.453125 74.996094 71.878906 74.996094 71.164062 C 74.996094 70.453125 75.582031 69.875 76.304688 69.875 C 77.027344 69.875 77.613281 70.453125 77.613281 71.164062 C 77.613281 71.878906 77.027344 72.453125 76.304688 72.453125 Z M 76.304688 64.121094 C 74.328125 64.121094 72.539062 64.910156 71.242188 66.183594 C 69.949219 67.460938 69.148438 69.222656 69.148438 71.164062 C 69.148438 73.113281 69.949219 74.871094 71.242188 76.148438 C 72.539062 77.421875 74.328125 78.210938 76.304688 78.210938 C 78.28125 78.210938 80.070312 77.421875 81.363281 76.148438 C 82.660156 74.871094 83.460938 73.113281 83.460938 71.164062 C 83.460938 69.222656 82.660156 67.460938 81.363281 66.183594 C 80.070312 64.910156 78.28125 64.121094 76.304688 64.121094 " fill-opacity="1" fill-rule="evenodd"/><path fill="#ff4400" d="M 45.167969 71.164062 C 45.167969 69.222656 44.367188 67.460938 43.074219 66.183594 C 41.777344 64.910156 39.988281 64.121094 38.011719 64.121094 C 36.035156 64.121094 34.246094 64.910156 32.953125 66.183594 C 31.65625 67.460938 30.855469 69.222656 30.855469 71.164062 C 30.855469 73.113281 31.65625 74.871094 32.953125 76.148438 C 34.246094 77.421875 36.035156 78.210938 38.011719 78.210938 C 39.988281 78.210938 41.777344 77.421875 43.074219 76.148438 C 44.367188 74.871094 45.167969 73.113281 45.167969 71.164062 Z M 38.011719 69.875 C 38.734375 69.875 39.320312 70.453125 39.320312 71.164062 C 39.320312 71.878906 38.734375 72.453125 38.011719 72.453125 C 37.289062 72.453125 36.703125 71.878906 36.703125 71.164062 C 36.703125 70.453125 37.289062 69.875 38.011719 69.875 " fill-opacity="1" fill-rule="evenodd"/></g></g></g></g></svg>