<svg xmlns="http://www.w3.org/2000/svg" xmlns:xlink="http://www.w3.org/1999/xlink" width="189" zoomAndPan="magnify" viewBox="0 0 141.75 112.499997" height="150" preserveAspectRatio="xMidYMid meet" version="1.0"><defs><filter x="0%" y="0%" width="100%" height="100%" id="ee68ac95b4"><feColorMatrix values="0 0 0 0 1 0 0 0 0 1 0 0 0 0 1 0 0 0 1 0" color-interpolation-filters="sRGB"/></filter><clipPath id="01b902a826"><path d="M 14 0 L 127 0 L 127 112.003906 L 14 112.003906 Z M 14 0 " clip-rule="nonzero"/></clipPath><mask id="4e8745c08c"><g filter="url(#ee68ac95b4)"><rect x="-14.175" width="170.1" fill="#000000" y="-11.25" height="134.999996" fill-opacity="0.6"/></g></mask><clipPath id="e303dc5c86"><path d="M 0.75 0 L 112.75 0 L 112.75 112.003906 L 0.75 112.003906 Z M 0.75 0 " clip-rule="nonzero"/></clipPath><clipPath id="e3f4f580dd"><rect x="0" width="113" y="0" height="113"/></clipPath></defs><g clip-path="url(#01b902a826)"><g mask="url(#4e8745c08c)"><g transform="matrix(1, 0, 0, 1, 14, 0)"><g clip-path="url(#e3f4f580dd)"><g clip-path="url(#e303dc5c86)"><path fill="#ff4400" d="M 112.75 56 C 112.75 86.929688 87.679688 112.003906 56.75 112.003906 C 25.820312 112.003906 0.75 86.929688 0.75 56 C 0.75 25.074219 25.820312 0 56.75 0 C 87.679688 0 112.75 25.074219 112.75 56 Z M 112.75 56 " fill-opacity="1" fill-rule="nonzero"/></g><path fill="#ffffff" d="M 34.210938 31.375 C 35.753906 28.476562 38.769531 26.667969 42.054688 26.667969 L 71.445312 26.667969 C 74.730469 26.667969 77.746094 28.476562 79.289062 31.375 L 86.765625 45.386719 C 87.058594 45.9375 87.042969 46.601562 86.71875 47.136719 C 86.398438 47.671875 85.820312 48 85.195312 48 L 28.304688 48 C 27.679688 48 27.101562 47.671875 26.78125 47.136719 C 26.460938 46.601562 26.441406 45.9375 26.738281 45.386719 Z M 42.054688 30.222656 C 40.085938 30.222656 38.273438 31.308594 37.347656 33.046875 L 31.269531 44.445312 L 82.234375 44.445312 L 76.152344 33.046875 C 75.226562 31.308594 73.417969 30.222656 71.445312 30.222656 Z M 42.054688 30.222656 " fill-opacity="1" fill-rule="evenodd"/><path fill="#ffffff" d="M 24.75 71.113281 C 23.769531 71.113281 22.972656 71.910156 22.972656 72.890625 L 22.972656 76.445312 C 22.972656 81.355469 26.953125 85.335938 31.859375 85.335938 C 36.769531 85.335938 40.75 81.355469 40.75 76.445312 L 40.75 72.890625 C 40.75 71.910156 39.953125 71.113281 38.972656 71.113281 Z M 24.75 71.113281 " fill-opacity="1" fill-rule="evenodd"/><path fill="#ffffff" d="M 74.527344 71.113281 C 73.546875 71.113281 72.75 71.910156 72.75 72.890625 L 72.75 76.445312 C 72.75 81.355469 76.730469 85.335938 81.640625 85.335938 C 86.550781 85.335938 90.527344 81.355469 90.527344 76.445312 L 90.527344 72.890625 C 90.527344 71.910156 89.734375 71.113281 88.75 71.113281 Z M 74.527344 71.113281 " fill-opacity="1" fill-rule="evenodd"/><path fill="#ffffff" d="M 28.304688 44.445312 C 23.394531 44.445312 19.417969 48.425781 19.417969 53.335938 L 19.417969 65.777344 C 19.417969 70.6875 23.394531 74.667969 28.304688 74.667969 L 85.195312 74.667969 C 90.105469 74.667969 94.085938 70.6875 94.085938 65.777344 L 94.085938 53.335938 C 94.085938 48.425781 90.105469 44.445312 85.195312 44.445312 Z M 76.304688 53.335938 C 73.359375 53.335938 70.972656 55.722656 70.972656 58.667969 C 70.972656 61.613281 73.359375 64 76.304688 64 L 83.417969 64 C 86.363281 64 88.75 61.613281 88.75 58.667969 C 88.75 55.722656 86.363281 53.335938 83.417969 53.335938 Z M 24.75 58.667969 C 24.75 55.722656 27.136719 53.335938 30.082031 53.335938 L 37.195312 53.335938 C 40.140625 53.335938 42.527344 55.722656 42.527344 58.667969 C 42.527344 61.613281 40.140625 64 37.195312 64 L 30.082031 64 C 27.136719 64 24.75 61.613281 24.75 58.667969 Z M 44.304688 56.890625 C 44.304688 55.910156 45.101562 55.113281 46.082031 55.113281 L 67.417969 55.113281 C 68.398438 55.113281 69.195312 55.910156 69.195312 56.890625 C 69.195312 57.871094 68.398438 58.667969 67.417969 58.667969 L 46.082031 58.667969 C 45.101562 58.667969 44.304688 57.871094 44.304688 56.890625 Z M 49.640625 60.445312 C 48.65625 60.445312 47.859375 61.242188 47.859375 62.222656 C 47.859375 63.207031 48.65625 64 49.640625 64 L 63.863281 64 C 64.84375 64 65.640625 63.207031 65.640625 62.222656 C 65.640625 61.242188 64.84375 60.445312 63.863281 60.445312 Z M 49.640625 60.445312 " fill-opacity="1" fill-rule="evenodd"/></g></g></g></g></svg>