<svg xmlns="http://www.w3.org/2000/svg" xmlns:xlink="http://www.w3.org/1999/xlink" width="189" zoomAndPan="magnify" viewBox="0 0 141.75 112.499997" height="150" preserveAspectRatio="xMidYMid meet" version="1.0"><defs><filter x="0%" y="0%" width="100%" height="100%" id="c217228322"><feColorMatrix values="0 0 0 0 1 0 0 0 0 1 0 0 0 0 1 0 0 0 1 0" color-interpolation-filters="sRGB"/></filter><clipPath id="4b5205fde3"><path d="M 14 0 L 127 0 L 127 112.003906 L 14 112.003906 Z M 14 0 " clip-rule="nonzero"/></clipPath><mask id="0cf4e63fac"><g filter="url(#c217228322)"><rect x="-14.175" width="170.1" fill="#000000" y="-11.25" height="134.999996" fill-opacity="0.6"/></g></mask><clipPath id="a57345e3a5"><path d="M 0.75 0 L 112.75 0 L 112.75 112.003906 L 0.75 112.003906 Z M 0.75 0 " clip-rule="nonzero"/></clipPath><clipPath id="02660b4906"><rect x="0" width="113" y="0" height="113"/></clipPath></defs><g clip-path="url(#4b5205fde3)"><g mask="url(#0cf4e63fac)"><g transform="matrix(1, 0, 0, 1, 14, 0)"><g clip-path="url(#02660b4906)"><path fill="#ff4400" d="M 84.328125 68.433594 C 82.492188 68.433594 80.832031 69.210938 79.664062 70.449219 C 78.585938 71.597656 77.925781 73.144531 77.925781 74.84375 C 77.925781 78.386719 80.796875 81.261719 84.335938 81.261719 C 87.457031 81.261719 90.0625 79.027344 90.628906 76.074219 C 90.714844 75.675781 90.753906 75.273438 90.753906 74.84375 C 90.746094 71.304688 87.875 68.433594 84.328125 68.433594 Z M 84.328125 68.433594 " fill-opacity="1" fill-rule="nonzero"/><path fill="#ff4400" d="M 33.019531 67.308594 C 31.179688 67.308594 29.519531 68.085938 28.355469 69.324219 C 27.273438 70.46875 26.617188 72.015625 26.617188 73.71875 C 26.617188 77.261719 29.488281 80.132812 33.027344 80.132812 C 36.148438 80.132812 38.75 77.902344 39.316406 74.949219 C 39.402344 74.546875 39.441406 74.144531 39.441406 73.71875 C 39.4375 70.179688 36.5625 67.308594 33.019531 67.308594 Z M 33.019531 67.308594 " fill-opacity="1" fill-rule="nonzero"/><g clip-path="url(#a57345e3a5)"><path fill="#ff4400" d="M 56.75 0 C 25.824219 0 0.75 25.074219 0.75 56 C 0.75 86.925781 25.824219 112.003906 56.75 112.003906 C 87.675781 112.003906 112.75 86.925781 112.75 56 C 112.75 25.074219 87.675781 0 56.75 0 Z M 15.125 34.378906 L 15.125 22.933594 L 34.535156 22.933594 L 34.535156 34.378906 Z M 30.3125 35.351562 L 30.3125 48.703125 L 19.34375 48.703125 L 19.34375 35.351562 Z M 47.070312 76.457031 C 45.800781 83.054688 39.988281 88.035156 33.019531 88.035156 C 25.113281 88.035156 18.703125 81.625 18.703125 73.710938 C 18.703125 69.910156 20.179688 66.449219 22.601562 63.894531 C 25.210938 61.125 28.914062 59.394531 33.019531 59.394531 C 40.933594 59.394531 47.34375 65.804688 47.34375 73.710938 C 47.34375 74.660156 47.25 75.574219 47.070312 76.457031 Z M 84.289062 89.066406 C 76.515625 89.066406 70.199219 82.75 70.199219 74.976562 C 70.199219 71.785156 71.277344 68.855469 73.0625 66.496094 C 73.042969 66.515625 73.015625 66.535156 72.996094 66.554688 L 68.082031 72.398438 C 66.941406 73.761719 65.511719 74.84375 63.910156 75.59375 C 62.304688 76.339844 60.558594 76.726562 58.785156 76.714844 L 50.472656 76.714844 C 50.644531 75.738281 50.730469 74.738281 50.730469 73.71875 C 50.730469 64.890625 44.226562 57.550781 35.761719 56.226562 L 19.34375 56.226562 L 19.34375 49.925781 L 31.292969 49.925781 L 31.292969 46.34375 L 40.140625 46.34375 C 42.566406 46.335938 44.949219 47.0625 46.960938 48.425781 C 48.96875 49.789062 50.523438 51.726562 51.421875 53.976562 L 51.992188 55.402344 C 56.804688 56.21875 60.777344 52.699219 60.777344 52.699219 C 59.90625 44.265625 66.621094 42.480469 70.09375 42.121094 L 68.511719 38.0625 C 67.609375 35.742188 65.335938 34.1875 62.851562 34.1875 L 61.488281 34.1875 C 60.683594 34.1875 59.917969 33.863281 59.347656 33.289062 C 58.78125 32.730469 58.457031 31.953125 58.457031 31.148438 C 58.457031 30.347656 58.78125 29.570312 59.347656 29.003906 C 59.917969 28.433594 60.683594 28.113281 61.488281 28.113281 L 62.851562 28.113281 C 65.214844 28.105469 67.527344 28.792969 69.5 30.089844 C 71.476562 31.386719 73.03125 33.230469 73.953125 35.398438 C 74.742188 32.941406 77.011719 31.148438 79.722656 31.148438 C 80.527344 31.148438 81.304688 31.464844 81.867188 32.039062 C 82.433594 32.605469 82.761719 33.382812 82.761719 34.1875 L 82.761719 40.269531 C 82.761719 41.058594 82.433594 41.835938 81.867188 42.410156 C 81.304688 42.976562 80.527344 43.292969 79.722656 43.292969 C 78.636719 43.292969 77.640625 42.988281 76.765625 42.496094 L 81.859375 55.597656 C 82.648438 55.507812 83.460938 55.449219 84.277344 55.449219 L 91.867188 55.449219 C 92.671875 55.449219 93.449219 55.765625 94.015625 56.335938 C 94.582031 56.902344 94.902344 57.679688 94.902344 58.484375 C 94.902344 59.289062 94.582031 60.066406 94.015625 60.632812 C 93.449219 61.199219 92.671875 61.523438 91.867188 61.523438 L 88.488281 61.523438 C 94.210938 63.3125 98.371094 68.65625 98.371094 74.960938 C 98.375 82.75 92.058594 89.066406 84.289062 89.066406 Z M 84.289062 89.066406 " fill-opacity="1" fill-rule="nonzero"/></g></g></g></g></g></svg>