<svg xmlns="http://www.w3.org/2000/svg" xmlns:xlink="http://www.w3.org/1999/xlink" width="189" zoomAndPan="magnify" viewBox="0 0 141.75 112.499997" height="150" preserveAspectRatio="xMidYMid meet" version="1.0"><defs><clipPath id="093942c59f"><path d="M 16 0 L 125.734375 0 L 125.734375 112 L 16 112 Z M 16 0 " clip-rule="nonzero"/></clipPath></defs><path fill="#ff4400" d="M 70.738281 26.40625 C 54.421875 26.40625 41.152344 39.675781 41.152344 55.988281 C 41.152344 72.300781 54.425781 85.574219 70.738281 85.574219 C 87.050781 85.574219 100.320312 72.300781 100.320312 55.988281 C 100.320312 39.675781 87.050781 26.40625 70.738281 26.40625 Z M 86.210938 48.453125 L 69.773438 64.886719 C 68.488281 66.171875 66.410156 66.171875 65.125 64.886719 L 55.265625 55.027344 C 53.980469 53.742188 53.980469 51.664062 55.265625 50.378906 C 56.546875 49.09375 58.628906 49.09375 59.914062 50.378906 L 67.449219 57.914062 L 81.5625 43.804688 C 82.84375 42.519531 84.925781 42.519531 86.210938 43.804688 C 87.492188 45.089844 87.492188 47.167969 86.210938 48.453125 Z M 86.210938 48.453125 " fill-opacity="1" fill-rule="nonzero"/><g clip-path="url(#093942c59f)"><path fill="#ff4400" d="M 122.507812 55.988281 L 125.214844 45.074219 C 125.464844 44.066406 125.21875 42.996094 124.554688 42.191406 L 117.390625 33.523438 L 115.074219 22.519531 C 114.859375 21.5 114.175781 20.644531 113.230469 20.210938 L 103.015625 15.511719 L 96.167969 6.59375 C 95.546875 5.78125 94.582031 5.308594 93.5625 5.308594 C 93.007812 5.308594 96.488281 5.257812 82.261719 5.507812 L 72.210938 0.460938 C 71.285156 -0.0078125 70.1875 -0.0078125 69.261719 0.460938 L 59.210938 5.507812 L 47.96875 5.308594 C 46.867188 5.296875 45.910156 5.804688 45.304688 6.59375 L 38.457031 15.511719 L 28.242188 20.210938 C 27.296875 20.644531 26.613281 21.5 26.398438 22.519531 L 24.082031 33.523438 L 16.917969 42.191406 C 16.253906 42.996094 16.007812 44.066406 16.261719 45.078125 L 18.964844 55.988281 L 16.261719 66.902344 C 16.007812 67.914062 16.253906 68.984375 16.917969 69.789062 L 24.082031 78.457031 L 26.398438 89.460938 C 26.613281 90.480469 27.296875 91.335938 28.242188 91.769531 L 38.457031 96.46875 L 45.304688 105.386719 C 45.925781 106.199219 46.890625 106.671875 47.910156 106.671875 C 48.464844 106.671875 44.988281 106.722656 59.210938 106.472656 L 69.261719 111.519531 C 70.195312 111.988281 71.289062 111.984375 72.210938 111.519531 L 82.261719 106.472656 L 93.503906 106.671875 C 94.605469 106.683594 95.5625 106.175781 96.167969 105.386719 L 103.015625 96.46875 L 113.230469 91.769531 C 114.175781 91.335938 114.859375 90.480469 115.074219 89.460938 L 117.390625 78.457031 L 124.554688 69.789062 C 125.21875 68.984375 125.464844 67.914062 125.210938 66.902344 Z M 70.738281 92.148438 C 50.796875 92.148438 34.578125 75.925781 34.578125 55.988281 C 34.578125 36.050781 50.796875 19.832031 70.738281 19.832031 C 90.675781 19.832031 106.894531 36.050781 106.894531 55.988281 C 106.894531 75.925781 90.675781 92.148438 70.738281 92.148438 Z M 70.738281 92.148438 " fill-opacity="1" fill-rule="nonzero"/></g></svg>