<svg xmlns="http://www.w3.org/2000/svg" xmlns:xlink="http://www.w3.org/1999/xlink" width="189" zoomAndPan="magnify" viewBox="0 0 141.75 112.499997" height="150" preserveAspectRatio="xMidYMid meet" version="1.0"><defs><filter x="0%" y="0%" width="100%" height="100%" id="514447baa6"><feColorMatrix values="0 0 0 0 1 0 0 0 0 1 0 0 0 0 1 0 0 0 1 0" color-interpolation-filters="sRGB"/></filter><clipPath id="9534ae56c9"><path d="M 14 0 L 127 0 L 127 112.003906 L 14 112.003906 Z M 14 0 " clip-rule="nonzero"/></clipPath><mask id="850adfbe23"><g filter="url(#514447baa6)"><rect x="-14.175" width="170.1" fill="#000000" y="-11.25" height="134.999996" fill-opacity="0.6"/></g></mask><clipPath id="939944a01b"><path d="M 0.75 0 L 112.75 0 L 112.75 112.003906 L 0.75 112.003906 Z M 0.75 0 " clip-rule="nonzero"/></clipPath><clipPath id="5d3d552d8f"><rect x="0" width="113" y="0" height="113"/></clipPath></defs><g clip-path="url(#9534ae56c9)"><g mask="url(#850adfbe23)"><g transform="matrix(1, 0, 0, 1, 14, 0)"><g clip-path="url(#5d3d552d8f)"><g clip-path="url(#939944a01b)"><path fill="#ff4400" d="M 56.75 0 L 46.960938 6.726562 L 35.3125 4.265625 L 28.804688 14.21875 L 17.15625 16.40625 L 14.96875 28.054688 L 5.015625 34.5625 L 7.421875 46.210938 L 0.75 56 L 7.421875 65.84375 L 5.015625 77.4375 L 14.96875 83.945312 L 17.15625 95.597656 L 28.804688 97.839844 L 35.3125 107.738281 L 46.960938 105.332031 L 56.75 112.003906 L 66.539062 105.332031 L 78.1875 107.738281 L 84.695312 97.839844 L 96.34375 95.597656 L 98.53125 83.945312 L 108.484375 77.4375 L 106.078125 65.84375 L 112.75 56 L 106.078125 46.210938 L 108.484375 34.5625 L 98.53125 28.054688 L 96.34375 16.40625 L 84.695312 14.21875 L 78.1875 4.265625 L 66.539062 6.726562 Z M 56.75 17.5 C 78.015625 17.5 95.25 34.738281 95.25 56 C 95.25 77.265625 78.015625 94.503906 56.75 94.503906 C 35.488281 94.503906 18.25 77.265625 18.25 56 C 18.25 34.738281 35.488281 17.5 56.75 17.5 Z M 73.757812 38.390625 L 51.007812 62.671875 L 39.085938 52.0625 L 32.085938 59.882812 L 47.835938 73.882812 L 51.664062 77.273438 L 55.164062 73.554688 L 81.414062 45.554688 Z M 73.757812 38.390625 " fill-opacity="1" fill-rule="nonzero"/></g></g></g></g></g></svg>