<svg xmlns="http://www.w3.org/2000/svg" xmlns:xlink="http://www.w3.org/1999/xlink" width="189" zoomAndPan="magnify" viewBox="0 0 141.75 112.499997" height="150" preserveAspectRatio="xMidYMid meet" version="1.0"><defs><filter x="0%" y="0%" width="100%" height="100%" id="dbc12a5409"><feColorMatrix values="0 0 0 0 1 0 0 0 0 1 0 0 0 0 1 0 0 0 1 0" color-interpolation-filters="sRGB"/></filter><clipPath id="14d7c6ee80"><path d="M 0.1875 0 L 141.3125 0 L 141.3125 112.003906 L 0.1875 112.003906 Z M 0.1875 0 " clip-rule="nonzero"/></clipPath><clipPath id="6ebc5bbe72"><path d="M 15 0 L 126 0 L 126 112.003906 L 15 112.003906 Z M 15 0 " clip-rule="nonzero"/></clipPath><mask id="5cf6af8ff5"><g filter="url(#dbc12a5409)"><rect x="-14.175" width="170.1" fill="#000000" y="-11.25" height="134.999996" fill-opacity="0.6"/></g></mask><clipPath id="4bbc5eceda"><path d="M 1 0 L 110.632812 0 L 110.632812 112 L 1 112 Z M 1 0 " clip-rule="nonzero"/></clipPath><clipPath id="7d7714ee2b"><rect x="0" width="111" y="0" height="113"/></clipPath></defs><g clip-path="url(#14d7c6ee80)"><path fill="#ffffff" d="M 0.1875 0 L 141.3125 0 L 141.3125 112.003906 L 0.1875 112.003906 Z M 0.1875 0 " fill-opacity="1" fill-rule="nonzero"/><path fill="#ffffff" d="M 0.1875 0 L 141.3125 0 L 141.3125 112.003906 L 0.1875 112.003906 Z M 0.1875 0 " fill-opacity="1" fill-rule="nonzero"/></g><g clip-path="url(#6ebc5bbe72)"><g mask="url(#5cf6af8ff5)"><g transform="matrix(1, 0, 0, 1, 15, 0)"><g clip-path="url(#7d7714ee2b)"><path fill="#ff4400" d="M 55.738281 26.40625 C 39.421875 26.40625 26.152344 39.675781 26.152344 55.988281 C 26.152344 72.300781 39.425781 85.574219 55.738281 85.574219 C 72.050781 85.574219 85.320312 72.300781 85.320312 55.988281 C 85.320312 39.675781 72.050781 26.40625 55.738281 26.40625 Z M 71.210938 48.453125 L 54.773438 64.886719 C 53.488281 66.171875 51.410156 66.171875 50.125 64.886719 L 40.265625 55.027344 C 38.980469 53.742188 38.980469 51.664062 40.265625 50.378906 C 41.546875 49.09375 43.628906 49.09375 44.914062 50.378906 L 52.449219 57.914062 L 66.5625 43.804688 C 67.84375 42.519531 69.925781 42.519531 71.210938 43.804688 C 72.492188 45.089844 72.492188 47.167969 71.210938 48.453125 Z M 71.210938 48.453125 " fill-opacity="1" fill-rule="nonzero"/><g clip-path="url(#4bbc5eceda)"><path fill="#ff4400" d="M 107.507812 55.988281 L 110.214844 45.074219 C 110.464844 44.066406 110.21875 42.996094 109.554688 42.191406 L 102.390625 33.523438 L 100.074219 22.519531 C 99.859375 21.5 99.175781 20.644531 98.230469 20.210938 L 88.015625 15.511719 L 81.167969 6.59375 C 80.546875 5.78125 79.582031 5.308594 78.5625 5.308594 C 78.007812 5.308594 81.488281 5.257812 67.261719 5.507812 L 57.210938 0.460938 C 56.285156 -0.0078125 55.1875 -0.0078125 54.261719 0.460938 L 44.210938 5.507812 L 32.96875 5.308594 C 31.867188 5.296875 30.910156 5.804688 30.304688 6.59375 L 23.457031 15.511719 L 13.242188 20.210938 C 12.296875 20.644531 11.613281 21.5 11.398438 22.519531 L 9.082031 33.523438 L 1.917969 42.191406 C 1.253906 42.996094 1.007812 44.066406 1.261719 45.078125 L 3.964844 55.988281 L 1.261719 66.902344 C 1.007812 67.914062 1.253906 68.984375 1.917969 69.789062 L 9.082031 78.457031 L 11.398438 89.460938 C 11.613281 90.480469 12.296875 91.335938 13.242188 91.769531 L 23.457031 96.46875 L 30.304688 105.386719 C 30.925781 106.199219 31.890625 106.671875 32.910156 106.671875 C 33.464844 106.671875 29.988281 106.722656 44.210938 106.472656 L 54.261719 111.519531 C 55.195312 111.988281 56.289062 111.984375 57.210938 111.519531 L 67.261719 106.472656 L 78.503906 106.671875 C 79.605469 106.683594 80.5625 106.175781 81.167969 105.386719 L 88.015625 96.46875 L 98.230469 91.769531 C 99.175781 91.335938 99.859375 90.480469 100.074219 89.460938 L 102.390625 78.457031 L 109.554688 69.789062 C 110.21875 68.984375 110.464844 67.914062 110.210938 66.902344 Z M 55.738281 92.148438 C 35.796875 92.148438 19.578125 75.925781 19.578125 55.988281 C 19.578125 36.050781 35.796875 19.832031 55.738281 19.832031 C 75.675781 19.832031 91.894531 36.050781 91.894531 55.988281 C 91.894531 75.925781 75.675781 92.148438 55.738281 92.148438 Z M 55.738281 92.148438 " fill-opacity="1" fill-rule="nonzero"/></g></g></g></g></g></svg>