<svg xmlns="http://www.w3.org/2000/svg" xmlns:xlink="http://www.w3.org/1999/xlink" width="189" zoomAndPan="magnify" viewBox="0 0 141.75 112.499997" height="150" preserveAspectRatio="xMidYMid meet" version="1.0"><defs><filter x="0%" y="0%" width="100%" height="100%" id="582f7ba8ee"><feColorMatrix values="0 0 0 0 1 0 0 0 0 1 0 0 0 0 1 0 0 0 1 0" color-interpolation-filters="sRGB"/></filter><clipPath id="45830ba97e"><path d="M 0.1875 0 L 141.3125 0 L 141.3125 112.003906 L 0.1875 112.003906 Z M 0.1875 0 " clip-rule="nonzero"/></clipPath><clipPath id="e02bf6e3e4"><path d="M 14 0 L 128 0 L 128 112.003906 L 14 112.003906 Z M 14 0 " clip-rule="nonzero"/></clipPath><mask id="27c3e98771"><g filter="url(#582f7ba8ee)"><rect x="-14.175" width="170.1" fill="#000000" y="-11.25" height="134.999996" fill-opacity="0.6"/></g></mask><clipPath id="bc0e9852d3"><path d="M 0.75 0 L 112.75 0 L 112.75 112 L 0.75 112 Z M 0.75 0 " clip-rule="nonzero"/></clipPath><clipPath id="1606e66f85"><rect x="0" width="114" y="0" height="113"/></clipPath></defs><g clip-path="url(#45830ba97e)"><path fill="#ffffff" d="M 0.1875 0 L 141.3125 0 L 141.3125 112.003906 L 0.1875 112.003906 Z M 0.1875 0 " fill-opacity="1" fill-rule="nonzero"/><path fill="#ffffff" d="M 0.1875 0 L 141.3125 0 L 141.3125 112.003906 L 0.1875 112.003906 Z M 0.1875 0 " fill-opacity="1" fill-rule="nonzero"/></g><g clip-path="url(#e02bf6e3e4)"><g mask="url(#27c3e98771)"><g transform="matrix(1, 0, 0, 1, 14, 0)"><g clip-path="url(#1606e66f85)"><g clip-path="url(#bc0e9852d3)"><path fill="#ff4400" d="M 112.75 56 C 112.75 57.835938 112.660156 59.664062 112.480469 61.488281 C 112.300781 63.316406 112.03125 65.125 111.675781 66.925781 C 111.316406 68.722656 110.871094 70.5 110.339844 72.257812 C 109.804688 74.011719 109.1875 75.738281 108.488281 77.429688 C 107.785156 79.125 107.003906 80.78125 106.136719 82.398438 C 105.273438 84.015625 104.332031 85.585938 103.3125 87.113281 C 102.292969 88.636719 101.203125 90.109375 100.039062 91.527344 C 98.875 92.945312 97.644531 94.300781 96.347656 95.597656 C 95.050781 96.894531 93.695312 98.125 92.277344 99.289062 C 90.859375 100.453125 89.386719 101.542969 87.863281 102.5625 C 86.335938 103.582031 84.765625 104.523438 83.148438 105.386719 C 81.53125 106.253906 79.875 107.035156 78.179688 107.738281 C 76.484375 108.441406 74.761719 109.058594 73.007812 109.589844 C 71.25 110.121094 69.472656 110.566406 67.675781 110.925781 C 65.875 111.28125 64.0625 111.550781 62.238281 111.730469 C 60.414062 111.910156 58.585938 112 56.75 112 C 54.914062 112 53.085938 111.910156 51.261719 111.730469 C 49.4375 111.550781 47.625 111.28125 45.824219 110.925781 C 44.027344 110.566406 42.25 110.121094 40.492188 109.589844 C 38.738281 109.058594 37.015625 108.441406 35.320312 107.738281 C 33.625 107.035156 31.96875 106.253906 30.351562 105.386719 C 28.734375 104.523438 27.164062 103.582031 25.636719 102.5625 C 24.113281 101.542969 22.640625 100.453125 21.222656 99.289062 C 19.804688 98.125 18.449219 96.894531 17.152344 95.597656 C 15.855469 94.300781 14.625 92.945312 13.460938 91.527344 C 12.296875 90.109375 11.207031 88.636719 10.1875 87.113281 C 9.167969 85.585938 8.226562 84.015625 7.363281 82.398438 C 6.496094 80.78125 5.714844 79.125 5.011719 77.429688 C 4.308594 75.738281 3.691406 74.011719 3.160156 72.257812 C 2.628906 70.5 2.183594 68.722656 1.824219 66.925781 C 1.46875 65.125 1.199219 63.316406 1.019531 61.488281 C 0.839844 59.664062 0.75 57.835938 0.75 56 C 0.75 54.167969 0.839844 52.335938 1.019531 50.511719 C 1.199219 48.6875 1.46875 46.875 1.824219 45.074219 C 2.183594 43.277344 2.628906 41.5 3.160156 39.746094 C 3.691406 37.988281 4.308594 36.265625 5.011719 34.570312 C 5.714844 32.875 6.496094 31.21875 7.363281 29.601562 C 8.226562 27.984375 9.167969 26.414062 10.1875 24.886719 C 11.207031 23.363281 12.296875 21.890625 13.460938 20.472656 C 14.625 19.054688 15.855469 17.699219 17.152344 16.402344 C 18.449219 15.105469 19.804688 13.875 21.222656 12.710938 C 22.640625 11.546875 24.113281 10.457031 25.636719 9.4375 C 27.164062 8.417969 28.734375 7.476562 30.351562 6.613281 C 31.96875 5.746094 33.625 4.964844 35.320312 4.261719 C 37.015625 3.5625 38.738281 2.945312 40.492188 2.410156 C 42.25 1.878906 44.027344 1.433594 45.824219 1.074219 C 47.625 0.71875 49.4375 0.449219 51.261719 0.269531 C 53.085938 0.0898438 54.914062 0 56.75 0 C 58.585938 0 60.414062 0.0898438 62.238281 0.269531 C 64.0625 0.449219 65.875 0.71875 67.675781 1.074219 C 69.472656 1.433594 71.25 1.878906 73.007812 2.410156 C 74.761719 2.945312 76.484375 3.5625 78.179688 4.261719 C 79.875 4.964844 81.53125 5.746094 83.148438 6.613281 C 84.765625 7.476562 86.335938 8.417969 87.863281 9.4375 C 89.386719 10.457031 90.859375 11.546875 92.277344 12.710938 C 93.695312 13.875 95.050781 15.105469 96.347656 16.402344 C 97.644531 17.699219 98.875 19.054688 100.039062 20.472656 C 101.203125 21.890625 102.292969 23.363281 103.3125 24.886719 C 104.332031 26.414062 105.273438 27.984375 106.136719 29.601562 C 107.003906 31.21875 107.785156 32.875 108.488281 34.570312 C 109.1875 36.265625 109.804688 37.988281 110.339844 39.746094 C 110.871094 41.5 111.316406 43.277344 111.675781 45.074219 C 112.03125 46.875 112.300781 48.6875 112.480469 50.511719 C 112.660156 52.335938 112.75 54.167969 112.75 56 Z M 112.75 56 " fill-opacity="1" fill-rule="nonzero"/></g><path fill="#fffffe" d="M 27.15625 74.964844 L 21.828125 74.964844 C 21.484375 74.964844 21.203125 74.6875 21.203125 74.34375 L 21.203125 49.914062 C 21.203125 49.570312 21.480469 49.292969 21.828125 49.292969 L 38.894531 49.292969 C 39.238281 49.292969 39.519531 49.570312 39.519531 49.914062 C 39.519531 50.257812 39.238281 50.539062 38.894531 50.539062 L 22.449219 50.539062 L 22.449219 73.71875 L 27.15625 73.71875 C 27.503906 73.71875 27.78125 74 27.78125 74.34375 C 27.78125 74.6875 27.503906 74.964844 27.15625 74.964844 Z M 50.902344 74.964844 L 38.414062 74.964844 C 38.070312 74.964844 37.792969 74.6875 37.792969 74.34375 C 37.792969 73.996094 38.070312 73.71875 38.414062 73.71875 L 50.902344 73.71875 C 51.25 73.71875 51.527344 74 51.527344 74.34375 C 51.527344 74.6875 51.246094 74.964844 50.902344 74.964844 Z M 65.296875 74.964844 L 62.164062 74.964844 C 61.816406 74.964844 61.539062 74.6875 61.539062 74.34375 C 61.539062 73.996094 61.816406 73.71875 62.164062 73.71875 L 64.671875 73.71875 L 64.671875 58.582031 L 63.480469 58.582031 C 63.136719 58.582031 62.855469 58.300781 62.855469 57.957031 C 62.859375 57.613281 63.136719 57.332031 63.480469 57.332031 L 65.296875 57.332031 C 65.640625 57.332031 65.917969 57.613281 65.917969 57.957031 L 65.917969 74.34375 C 65.917969 74.6875 65.640625 74.964844 65.296875 74.964844 Z M 65.296875 74.964844 " fill-opacity="1" fill-rule="evenodd"/><path fill="#fffffe" d="M 63.480469 58.578125 L 38.894531 58.578125 C 38.550781 58.578125 38.269531 58.300781 38.269531 57.957031 L 38.269531 49.914062 C 38.269531 49.570312 38.550781 49.289062 38.894531 49.289062 C 39.238281 49.289062 39.519531 49.570312 39.519531 49.914062 L 39.519531 57.332031 L 62.65625 57.332031 L 56.054688 34 C 55.683594 32.691406 55.070312 32.027344 54.226562 32.027344 L 29.796875 32.027344 C 28.804688 32.027344 27.992188 32.835938 27.992188 33.832031 L 27.992188 49.914062 C 27.992188 50.257812 27.714844 50.539062 27.367188 50.539062 C 27.023438 50.539062 26.746094 50.257812 26.746094 49.914062 L 26.746094 33.832031 C 26.746094 32.148438 28.113281 30.777344 29.796875 30.777344 L 54.226562 30.777344 C 55.652344 30.777344 56.730469 31.800781 57.253906 33.660156 L 64.082031 57.785156 C 64.136719 57.972656 64.097656 58.175781 63.980469 58.332031 C 63.863281 58.488281 63.675781 58.578125 63.480469 58.578125 Z M 63.480469 58.578125 " fill-opacity="1" fill-rule="evenodd"/><path fill="#fffffe" d="M 57.195312 58.578125 C 57.15625 58.578125 57.117188 58.574219 57.074219 58.570312 C 56.738281 58.503906 56.515625 58.175781 56.582031 57.835938 C 56.875 56.332031 57.414062 54.972656 58.183594 53.796875 C 58.988281 52.578125 60.03125 51.558594 61.285156 50.773438 C 61.578125 50.589844 61.960938 50.679688 62.144531 50.972656 C 62.328125 51.265625 62.242188 51.652344 61.949219 51.832031 C 60.84375 52.523438 59.929688 53.414062 59.226562 54.484375 C 58.542969 55.523438 58.066406 56.730469 57.808594 58.074219 C 57.75 58.371094 57.488281 58.578125 57.195312 58.578125 Z M 57.195312 58.578125 " fill-opacity="1" fill-rule="evenodd"/><path fill="#fffffe" d="M 58.707031 54.761719 C 58.566406 54.761719 58.425781 54.714844 58.308594 54.617188 L 53.972656 51 C 53.707031 50.777344 53.671875 50.386719 53.890625 50.121094 C 54.113281 49.859375 54.503906 49.820312 54.769531 50.042969 L 59.105469 53.660156 C 59.371094 53.882812 59.40625 54.273438 59.1875 54.539062 C 59.0625 54.6875 58.886719 54.761719 58.707031 54.761719 Z M 58.707031 54.761719 " fill-opacity="1" fill-rule="evenodd"/><path fill="#fffffe" d="M 53.15625 52.664062 C 53.019531 52.664062 52.882812 52.617188 52.769531 52.527344 C 52.5 52.308594 52.453125 51.917969 52.671875 51.648438 L 55.097656 48.613281 C 55.3125 48.34375 55.707031 48.300781 55.972656 48.515625 C 56.242188 48.730469 56.285156 49.125 56.070312 49.394531 L 53.644531 52.429688 C 53.523438 52.582031 53.339844 52.664062 53.15625 52.664062 Z M 53.15625 52.664062 " fill-opacity="1" fill-rule="evenodd"/><path fill="#fffffe" d="M 51.164062 58.578125 C 50.820312 58.578125 50.539062 58.300781 50.539062 57.957031 L 50.539062 56.363281 C 50.539062 55.828125 50.105469 55.394531 49.570312 55.394531 L 43.734375 55.394531 C 43.199219 55.394531 42.765625 55.828125 42.765625 56.363281 L 42.765625 57.957031 C 42.765625 58.300781 42.484375 58.578125 42.140625 58.578125 C 41.796875 58.578125 41.515625 58.300781 41.515625 57.957031 L 41.515625 56.363281 C 41.515625 55.140625 42.511719 54.148438 43.734375 54.148438 L 49.570312 54.144531 C 50.792969 54.144531 51.785156 55.140625 51.785156 56.363281 L 51.785156 57.957031 C 51.785156 58.300781 51.507812 58.578125 51.164062 58.578125 Z M 51.164062 58.578125 " fill-opacity="1" fill-rule="evenodd"/><path fill="#fffffe" d="M 42.152344 56.9375 C 41.804688 56.9375 41.527344 56.660156 41.527344 56.316406 L 41.527344 48.273438 C 41.527344 47.929688 41.804688 47.648438 42.148438 47.648438 C 42.496094 47.648438 42.773438 47.929688 42.773438 48.273438 L 42.773438 56.3125 C 42.773438 56.660156 42.496094 56.9375 42.152344 56.9375 Z M 42.152344 56.9375 " fill-opacity="1" fill-rule="evenodd"/><path fill="#fffffe" d="M 32.785156 70.113281 C 29.992188 70.113281 27.71875 72.382812 27.71875 75.175781 C 27.71875 77.972656 29.992188 80.242188 32.785156 80.242188 C 35.582031 80.242188 37.851562 77.972656 37.851562 75.175781 C 37.855469 72.382812 35.578125 70.113281 32.785156 70.113281 Z M 32.785156 81.492188 C 29.304688 81.492188 26.472656 78.660156 26.472656 75.175781 C 26.472656 71.695312 29.304688 68.863281 32.785156 68.863281 C 36.269531 68.863281 39.101562 71.695312 39.101562 75.175781 C 39.101562 78.660156 36.269531 81.492188 32.785156 81.492188 Z M 32.785156 81.492188 " fill-opacity="1" fill-rule="evenodd"/><path fill="#fffffe" d="M 56.53125 70.113281 C 53.738281 70.113281 51.46875 72.382812 51.46875 75.175781 C 51.46875 77.972656 53.738281 80.242188 56.53125 80.242188 C 59.328125 80.242188 61.597656 77.972656 61.597656 75.175781 C 61.597656 72.382812 59.328125 70.113281 56.53125 70.113281 Z M 56.53125 81.492188 C 53.050781 81.492188 50.21875 78.660156 50.21875 75.175781 C 50.21875 71.695312 53.050781 68.863281 56.53125 68.863281 C 60.015625 68.863281 62.847656 71.695312 62.847656 75.175781 C 62.847656 78.660156 60.015625 81.492188 56.53125 81.492188 Z M 56.53125 81.492188 " fill-opacity="1" fill-rule="evenodd"/><path fill="#fffffe" d="M 32.785156 73.613281 C 31.925781 73.613281 31.222656 74.3125 31.222656 75.175781 C 31.222656 76.039062 31.925781 76.742188 32.785156 76.742188 C 33.648438 76.742188 34.351562 76.039062 34.351562 75.175781 C 34.351562 74.3125 33.648438 73.613281 32.785156 73.613281 Z M 32.785156 77.988281 C 31.238281 77.988281 29.976562 76.726562 29.976562 75.175781 C 29.976562 73.628906 31.238281 72.367188 32.785156 72.367188 C 34.335938 72.367188 35.597656 73.628906 35.597656 75.175781 C 35.597656 76.726562 34.335938 77.988281 32.785156 77.988281 Z M 32.785156 77.988281 " fill-opacity="1" fill-rule="evenodd"/><path fill="#fffffe" d="M 56.53125 73.613281 C 55.671875 73.613281 54.96875 74.3125 54.96875 75.175781 C 54.96875 76.039062 55.667969 76.742188 56.53125 76.742188 C 57.394531 76.742188 58.097656 76.039062 58.097656 75.175781 C 58.097656 74.3125 57.394531 73.613281 56.53125 73.613281 Z M 56.53125 77.988281 C 54.984375 77.988281 53.722656 76.726562 53.722656 75.175781 C 53.722656 73.628906 54.984375 72.367188 56.53125 72.367188 C 58.082031 72.367188 59.34375 73.628906 59.34375 75.175781 C 59.34375 76.726562 58.082031 77.988281 56.53125 77.988281 Z M 56.53125 77.988281 " fill-opacity="1" fill-rule="evenodd"/><path fill="#fffffe" d="M 91.671875 74.964844 L 68.957031 74.964844 C 68.613281 74.964844 68.332031 74.6875 68.332031 74.34375 L 68.332031 31.132812 C 68.332031 30.789062 68.613281 30.511719 68.957031 30.511719 C 69.300781 30.511719 69.578125 30.789062 69.578125 31.132812 L 69.578125 73.71875 L 91.671875 73.71875 C 92.019531 73.71875 92.296875 74 92.296875 74.34375 C 92.296875 74.6875 92.019531 74.964844 91.671875 74.964844 Z M 91.671875 74.964844 " fill-opacity="1" fill-rule="evenodd"/><path fill="#fffffe" d="M 68.957031 64.121094 L 65.296875 64.121094 C 64.949219 64.121094 64.671875 63.84375 64.671875 63.5 C 64.671875 63.15625 64.949219 62.875 65.296875 62.875 L 68.957031 62.875 C 69.300781 62.875 69.578125 63.15625 69.578125 63.5 C 69.578125 63.84375 69.300781 64.121094 68.957031 64.121094 Z M 68.957031 71.105469 L 65.296875 71.105469 C 64.949219 71.105469 64.671875 70.828125 64.671875 70.484375 C 64.671875 70.140625 64.949219 69.859375 65.296875 69.859375 L 68.957031 69.859375 C 69.300781 69.859375 69.578125 70.140625 69.578125 70.484375 C 69.578125 70.828125 69.300781 71.105469 68.957031 71.105469 Z M 68.957031 71.105469 " fill-opacity="1" fill-rule="evenodd"/><path fill="#fffffe" d="M 88.289062 74.804688 C 87.941406 74.804688 87.664062 74.527344 87.664062 74.179688 L 87.664062 58.867188 L 72.972656 58.867188 L 72.972656 74.179688 C 72.972656 74.527344 72.695312 74.804688 72.351562 74.804688 C 72.003906 74.804688 71.726562 74.527344 71.726562 74.179688 L 71.726562 58.242188 C 71.726562 57.898438 72.003906 57.617188 72.351562 57.617188 L 88.289062 57.617188 C 88.632812 57.617188 88.910156 57.898438 88.910156 58.242188 L 88.910156 74.179688 C 88.910156 74.527344 88.632812 74.804688 88.289062 74.804688 Z M 88.289062 74.804688 " fill-opacity="1" fill-rule="evenodd"/><path fill="#fffffe" d="M 77.507812 64.175781 C 77.417969 64.175781 77.324219 64.160156 77.238281 64.117188 C 77.023438 64.011719 76.886719 63.792969 76.886719 63.554688 L 76.886719 58.242188 C 76.886719 57.898438 77.164062 57.617188 77.507812 57.617188 C 77.855469 57.617188 78.132812 57.898438 78.132812 58.242188 L 78.132812 62.257812 L 79.867188 60.871094 C 80.085938 60.691406 80.398438 60.6875 80.625 60.851562 L 82.628906 62.324219 L 82.628906 58.242188 C 82.628906 57.898438 82.910156 57.617188 83.253906 57.617188 C 83.597656 57.617188 83.875 57.898438 83.875 58.242188 L 83.878906 63.554688 C 83.878906 63.789062 83.746094 64.003906 83.535156 64.109375 C 83.328125 64.214844 83.074219 64.195312 82.882812 64.058594 L 80.273438 62.140625 L 77.898438 64.042969 C 77.785156 64.132812 77.648438 64.179688 77.507812 64.175781 Z M 77.507812 64.175781 " fill-opacity="1" fill-rule="evenodd"/><path fill="#fffffe" d="M 75.816406 71.722656 L 79.148438 71.722656 L 79.148438 70.039062 L 75.816406 70.039062 Z M 79.773438 72.972656 L 75.191406 72.972656 C 74.847656 72.972656 74.566406 72.695312 74.566406 72.347656 L 74.566406 69.417969 C 74.566406 69.070312 74.847656 68.792969 75.191406 68.792969 L 79.773438 68.792969 C 80.117188 68.792969 80.394531 69.070312 80.394531 69.417969 L 80.394531 72.347656 C 80.394531 72.695312 80.117188 72.972656 79.773438 72.972656 Z M 79.773438 72.972656 " fill-opacity="1" fill-rule="evenodd"/><path fill="#fffffe" d="M 72.976562 54.695312 L 87.671875 54.695312 L 87.671875 40.003906 L 72.976562 40.003906 Z M 88.292969 55.941406 L 72.355469 55.941406 C 72.011719 55.941406 71.730469 55.664062 71.730469 55.320312 L 71.730469 39.378906 C 71.730469 39.035156 72.011719 38.757812 72.355469 38.757812 L 88.292969 38.757812 C 88.636719 38.757812 88.917969 39.035156 88.917969 39.378906 L 88.917969 55.320312 C 88.917969 55.664062 88.636719 55.941406 88.292969 55.941406 Z M 88.292969 55.941406 " fill-opacity="1" fill-rule="evenodd"/><path fill="#fffffe" d="M 77.515625 45.316406 C 77.421875 45.316406 77.328125 45.296875 77.246094 45.253906 C 77.027344 45.152344 76.890625 44.933594 76.890625 44.695312 L 76.890625 39.378906 C 76.890625 39.035156 77.167969 38.757812 77.515625 38.757812 C 77.859375 38.757812 78.136719 39.035156 78.136719 39.378906 L 78.136719 43.394531 L 79.871094 42.007812 C 80.09375 41.832031 80.402344 41.824219 80.628906 41.992188 L 82.636719 43.460938 L 82.636719 39.378906 C 82.636719 39.035156 82.914062 38.757812 83.257812 38.757812 C 83.601562 38.757812 83.882812 39.035156 83.882812 39.378906 L 83.882812 44.691406 C 83.882812 44.925781 83.75 45.144531 83.539062 45.25 C 83.332031 45.355469 83.078125 45.335938 82.890625 45.195312 L 80.277344 43.28125 L 77.902344 45.179688 C 77.789062 45.269531 77.652344 45.316406 77.515625 45.316406 Z M 77.515625 45.316406 " fill-opacity="1" fill-rule="evenodd"/><path fill="#fffffe" d="M 75.820312 52.863281 L 79.152344 52.863281 L 79.152344 51.179688 L 75.820312 51.179688 Z M 79.777344 54.109375 L 75.199219 54.109375 C 74.851562 54.109375 74.574219 53.832031 74.574219 53.488281 L 74.574219 50.554688 C 74.574219 50.210938 74.851562 49.933594 75.199219 49.933594 L 79.777344 49.933594 C 80.121094 49.933594 80.402344 50.210938 80.402344 50.554688 L 80.402344 53.488281 C 80.402344 53.832031 80.121094 54.109375 79.777344 54.109375 Z M 79.777344 54.109375 " fill-opacity="1" fill-rule="evenodd"/><path fill="#fffffe" d="M 31.320312 54.433594 L 24.726562 54.433594 C 24.378906 54.433594 24.101562 54.15625 24.101562 53.808594 C 24.101562 53.460938 24.378906 53.183594 24.726562 53.183594 L 31.320312 53.183594 C 31.667969 53.183594 31.945312 53.460938 31.945312 53.808594 C 31.945312 54.15625 31.664062 54.433594 31.320312 54.433594 Z M 31.320312 54.433594 " fill-opacity="1" fill-rule="evenodd"/><path fill="#fffffe" d="M 31.320312 56.816406 L 24.726562 56.816406 C 24.378906 56.816406 24.101562 56.535156 24.101562 56.191406 C 24.101562 55.84375 24.378906 55.5625 24.726562 55.5625 L 31.320312 55.5625 C 31.667969 55.5625 31.945312 55.84375 31.945312 56.191406 C 31.945312 56.535156 31.664062 56.816406 31.320312 56.816406 Z M 31.320312 56.816406 " fill-opacity="1" fill-rule="evenodd"/><path fill="#fffffe" d="M 31.320312 59.195312 L 24.726562 59.195312 C 24.378906 59.195312 24.101562 58.917969 24.101562 58.570312 C 24.101562 58.226562 24.378906 57.945312 24.726562 57.945312 L 31.320312 57.945312 C 31.667969 57.945312 31.945312 58.226562 31.945312 58.570312 C 31.945312 58.917969 31.664062 59.195312 31.320312 59.195312 Z M 31.320312 59.195312 " fill-opacity="1" fill-rule="evenodd"/><path fill="#fffffe" d="M 25.800781 68.714844 L 21.828125 68.714844 C 21.484375 68.714844 21.203125 68.4375 21.203125 68.09375 C 21.203125 67.75 21.480469 67.46875 21.828125 67.46875 L 25.179688 67.46875 L 25.179688 64.332031 L 21.828125 64.332031 C 21.484375 64.332031 21.203125 64.050781 21.203125 63.707031 C 21.203125 63.363281 21.480469 63.082031 21.828125 63.082031 L 25.800781 63.082031 C 26.144531 63.082031 26.425781 63.363281 26.425781 63.707031 L 26.425781 68.09375 C 26.425781 68.4375 26.144531 68.71875 25.800781 68.714844 Z M 25.800781 68.714844 " fill-opacity="1" fill-rule="evenodd"/></g></g></g></g></svg>