<svg xmlns="http://www.w3.org/2000/svg" xmlns:xlink="http://www.w3.org/1999/xlink" width="189" zoomAndPan="magnify" viewBox="0 0 141.75 112.499997" height="150" preserveAspectRatio="xMidYMid meet" version="1.0"><defs><clipPath id="3bd547ad55"><path d="M 14.75 0 L 126.75 0 L 126.75 112 L 14.75 112 Z M 14.75 0 " clip-rule="nonzero"/></clipPath></defs><g clip-path="url(#3bd547ad55)"><path fill="#ff4400" d="M 126.75 56 C 126.75 57.835938 126.660156 59.664062 126.480469 61.488281 C 126.300781 63.316406 126.03125 65.125 125.675781 66.925781 C 125.316406 68.722656 124.871094 70.5 124.339844 72.257812 C 123.804688 74.011719 123.1875 75.738281 122.488281 77.429688 C 121.785156 79.125 121.003906 80.78125 120.136719 82.398438 C 119.273438 84.015625 118.332031 85.585938 117.3125 87.113281 C 116.292969 88.636719 115.203125 90.109375 114.039062 91.527344 C 112.875 92.945312 111.644531 94.300781 110.347656 95.597656 C 109.050781 96.894531 107.695312 98.125 106.277344 99.289062 C 104.859375 100.453125 103.386719 101.542969 101.863281 102.5625 C 100.335938 103.582031 98.765625 104.523438 97.148438 105.386719 C 95.53125 106.253906 93.875 107.035156 92.179688 107.738281 C 90.484375 108.441406 88.761719 109.058594 87.007812 109.589844 C 85.25 110.121094 83.472656 110.566406 81.675781 110.925781 C 79.875 111.28125 78.0625 111.550781 76.238281 111.730469 C 74.414062 111.910156 72.585938 112 70.75 112 C 68.914062 112 67.085938 111.910156 65.261719 111.730469 C 63.4375 111.550781 61.625 111.28125 59.824219 110.925781 C 58.027344 110.566406 56.25 110.121094 54.492188 109.589844 C 52.738281 109.058594 51.015625 108.441406 49.320312 107.738281 C 47.625 107.035156 45.96875 106.253906 44.351562 105.386719 C 42.734375 104.523438 41.164062 103.582031 39.636719 102.5625 C 38.113281 101.542969 36.640625 100.453125 35.222656 99.289062 C 33.804688 98.125 32.449219 96.894531 31.152344 95.597656 C 29.855469 94.300781 28.625 92.945312 27.460938 91.527344 C 26.296875 90.109375 25.207031 88.636719 24.1875 87.113281 C 23.167969 85.585938 22.226562 84.015625 21.363281 82.398438 C 20.496094 80.78125 19.714844 79.125 19.011719 77.429688 C 18.308594 75.738281 17.691406 74.011719 17.160156 72.257812 C 16.628906 70.5 16.183594 68.722656 15.824219 66.925781 C 15.46875 65.125 15.199219 63.316406 15.019531 61.488281 C 14.839844 59.664062 14.75 57.835938 14.75 56 C 14.75 54.167969 14.839844 52.335938 15.019531 50.511719 C 15.199219 48.6875 15.46875 46.875 15.824219 45.074219 C 16.183594 43.277344 16.628906 41.5 17.160156 39.746094 C 17.691406 37.988281 18.308594 36.265625 19.011719 34.570312 C 19.714844 32.875 20.496094 31.21875 21.363281 29.601562 C 22.226562 27.984375 23.167969 26.414062 24.1875 24.886719 C 25.207031 23.363281 26.296875 21.890625 27.460938 20.472656 C 28.625 19.054688 29.855469 17.699219 31.152344 16.402344 C 32.449219 15.105469 33.804688 13.875 35.222656 12.710938 C 36.640625 11.546875 38.113281 10.457031 39.636719 9.4375 C 41.164062 8.417969 42.734375 7.476562 44.351562 6.613281 C 45.96875 5.746094 47.625 4.964844 49.320312 4.261719 C 51.015625 3.5625 52.738281 2.945312 54.492188 2.410156 C 56.25 1.878906 58.027344 1.433594 59.824219 1.074219 C 61.625 0.71875 63.4375 0.449219 65.261719 0.269531 C 67.085938 0.0898438 68.914062 0 70.75 0 C 72.585938 0 74.414062 0.0898438 76.238281 0.269531 C 78.0625 0.449219 79.875 0.71875 81.675781 1.074219 C 83.472656 1.433594 85.25 1.878906 87.007812 2.410156 C 88.761719 2.945312 90.484375 3.5625 92.179688 4.261719 C 93.875 4.964844 95.53125 5.746094 97.148438 6.613281 C 98.765625 7.476562 100.335938 8.417969 101.863281 9.4375 C 103.386719 10.457031 104.859375 11.546875 106.277344 12.710938 C 107.695312 13.875 109.050781 15.105469 110.347656 16.402344 C 111.644531 17.699219 112.875 19.054688 114.039062 20.472656 C 115.203125 21.890625 116.292969 23.363281 117.3125 24.886719 C 118.332031 26.414062 119.273438 27.984375 120.136719 29.601562 C 121.003906 31.21875 121.785156 32.875 122.488281 34.570312 C 123.1875 36.265625 123.804688 37.988281 124.339844 39.746094 C 124.871094 41.5 125.316406 43.277344 125.675781 45.074219 C 126.03125 46.875 126.300781 48.6875 126.480469 50.511719 C 126.660156 52.335938 126.75 54.167969 126.75 56 Z M 126.75 56 " fill-opacity="1" fill-rule="nonzero"/></g><path fill="#fffffe" d="M 41.15625 74.964844 L 35.828125 74.964844 C 35.484375 74.964844 35.203125 74.6875 35.203125 74.34375 L 35.203125 49.914062 C 35.203125 49.570312 35.480469 49.292969 35.828125 49.292969 L 52.894531 49.292969 C 53.238281 49.292969 53.519531 49.570312 53.519531 49.914062 C 53.519531 50.257812 53.238281 50.539062 52.894531 50.539062 L 36.449219 50.539062 L 36.449219 73.71875 L 41.15625 73.71875 C 41.503906 73.71875 41.78125 74 41.78125 74.34375 C 41.78125 74.6875 41.503906 74.964844 41.15625 74.964844 Z M 64.902344 74.964844 L 52.414062 74.964844 C 52.070312 74.964844 51.792969 74.6875 51.792969 74.34375 C 51.792969 73.996094 52.070312 73.71875 52.414062 73.71875 L 64.902344 73.71875 C 65.25 73.71875 65.527344 74 65.527344 74.34375 C 65.527344 74.6875 65.246094 74.964844 64.902344 74.964844 Z M 79.296875 74.964844 L 76.164062 74.964844 C 75.816406 74.964844 75.539062 74.6875 75.539062 74.34375 C 75.539062 73.996094 75.816406 73.71875 76.164062 73.71875 L 78.671875 73.71875 L 78.671875 58.582031 L 77.480469 58.582031 C 77.136719 58.582031 76.855469 58.300781 76.855469 57.957031 C 76.859375 57.613281 77.136719 57.332031 77.480469 57.332031 L 79.296875 57.332031 C 79.640625 57.332031 79.917969 57.613281 79.917969 57.957031 L 79.917969 74.34375 C 79.917969 74.6875 79.640625 74.964844 79.296875 74.964844 Z M 79.296875 74.964844 " fill-opacity="1" fill-rule="evenodd"/><path fill="#fffffe" d="M 77.480469 58.578125 L 52.894531 58.578125 C 52.550781 58.578125 52.269531 58.300781 52.269531 57.957031 L 52.269531 49.914062 C 52.269531 49.570312 52.550781 49.289062 52.894531 49.289062 C 53.238281 49.289062 53.519531 49.570312 53.519531 49.914062 L 53.519531 57.332031 L 76.65625 57.332031 L 70.054688 34 C 69.683594 32.691406 69.070312 32.027344 68.226562 32.027344 L 43.796875 32.027344 C 42.804688 32.027344 41.992188 32.835938 41.992188 33.832031 L 41.992188 49.914062 C 41.992188 50.257812 41.714844 50.539062 41.367188 50.539062 C 41.023438 50.539062 40.746094 50.257812 40.746094 49.914062 L 40.746094 33.832031 C 40.746094 32.148438 42.113281 30.777344 43.796875 30.777344 L 68.226562 30.777344 C 69.652344 30.777344 70.730469 31.800781 71.253906 33.660156 L 78.082031 57.785156 C 78.136719 57.972656 78.097656 58.175781 77.980469 58.332031 C 77.863281 58.488281 77.675781 58.578125 77.480469 58.578125 Z M 77.480469 58.578125 " fill-opacity="1" fill-rule="evenodd"/><path fill="#fffffe" d="M 71.195312 58.578125 C 71.15625 58.578125 71.117188 58.574219 71.074219 58.570312 C 70.738281 58.503906 70.515625 58.175781 70.582031 57.835938 C 70.875 56.332031 71.414062 54.972656 72.183594 53.796875 C 72.988281 52.578125 74.03125 51.558594 75.285156 50.773438 C 75.578125 50.589844 75.960938 50.679688 76.144531 50.972656 C 76.328125 51.265625 76.242188 51.652344 75.949219 51.832031 C 74.84375 52.523438 73.929688 53.414062 73.226562 54.484375 C 72.542969 55.523438 72.066406 56.730469 71.808594 58.074219 C 71.75 58.371094 71.488281 58.578125 71.195312 58.578125 Z M 71.195312 58.578125 " fill-opacity="1" fill-rule="evenodd"/><path fill="#fffffe" d="M 72.707031 54.761719 C 72.566406 54.761719 72.425781 54.714844 72.308594 54.617188 L 67.972656 51 C 67.707031 50.777344 67.671875 50.386719 67.890625 50.121094 C 68.113281 49.859375 68.503906 49.820312 68.769531 50.042969 L 73.105469 53.660156 C 73.371094 53.882812 73.40625 54.273438 73.1875 54.539062 C 73.0625 54.6875 72.886719 54.761719 72.707031 54.761719 Z M 72.707031 54.761719 " fill-opacity="1" fill-rule="evenodd"/><path fill="#fffffe" d="M 67.15625 52.664062 C 67.019531 52.664062 66.882812 52.617188 66.769531 52.527344 C 66.5 52.308594 66.453125 51.917969 66.671875 51.648438 L 69.097656 48.613281 C 69.3125 48.34375 69.707031 48.300781 69.972656 48.515625 C 70.242188 48.730469 70.285156 49.125 70.070312 49.394531 L 67.644531 52.429688 C 67.523438 52.582031 67.339844 52.664062 67.15625 52.664062 Z M 67.15625 52.664062 " fill-opacity="1" fill-rule="evenodd"/><path fill="#fffffe" d="M 65.164062 58.578125 C 64.820312 58.578125 64.539062 58.300781 64.539062 57.957031 L 64.539062 56.363281 C 64.539062 55.828125 64.105469 55.394531 63.570312 55.394531 L 57.734375 55.394531 C 57.199219 55.394531 56.765625 55.828125 56.765625 56.363281 L 56.765625 57.957031 C 56.765625 58.300781 56.484375 58.578125 56.140625 58.578125 C 55.796875 58.578125 55.515625 58.300781 55.515625 57.957031 L 55.515625 56.363281 C 55.515625 55.140625 56.511719 54.148438 57.734375 54.148438 L 63.570312 54.144531 C 64.792969 54.144531 65.785156 55.140625 65.785156 56.363281 L 65.785156 57.957031 C 65.785156 58.300781 65.507812 58.578125 65.164062 58.578125 Z M 65.164062 58.578125 " fill-opacity="1" fill-rule="evenodd"/><path fill="#fffffe" d="M 56.152344 56.9375 C 55.804688 56.9375 55.527344 56.660156 55.527344 56.316406 L 55.527344 48.273438 C 55.527344 47.929688 55.804688 47.648438 56.148438 47.648438 C 56.496094 47.648438 56.773438 47.929688 56.773438 48.273438 L 56.773438 56.3125 C 56.773438 56.660156 56.496094 56.9375 56.152344 56.9375 Z M 56.152344 56.9375 " fill-opacity="1" fill-rule="evenodd"/><path fill="#fffffe" d="M 46.785156 70.113281 C 43.992188 70.113281 41.71875 72.382812 41.71875 75.175781 C 41.71875 77.972656 43.992188 80.242188 46.785156 80.242188 C 49.582031 80.242188 51.851562 77.972656 51.851562 75.175781 C 51.855469 72.382812 49.578125 70.113281 46.785156 70.113281 Z M 46.785156 81.492188 C 43.304688 81.492188 40.472656 78.660156 40.472656 75.175781 C 40.472656 71.695312 43.304688 68.863281 46.785156 68.863281 C 50.269531 68.863281 53.101562 71.695312 53.101562 75.175781 C 53.101562 78.660156 50.269531 81.492188 46.785156 81.492188 Z M 46.785156 81.492188 " fill-opacity="1" fill-rule="evenodd"/><path fill="#fffffe" d="M 70.53125 70.113281 C 67.738281 70.113281 65.46875 72.382812 65.46875 75.175781 C 65.46875 77.972656 67.738281 80.242188 70.53125 80.242188 C 73.328125 80.242188 75.597656 77.972656 75.597656 75.175781 C 75.597656 72.382812 73.328125 70.113281 70.53125 70.113281 Z M 70.53125 81.492188 C 67.050781 81.492188 64.21875 78.660156 64.21875 75.175781 C 64.21875 71.695312 67.050781 68.863281 70.53125 68.863281 C 74.015625 68.863281 76.847656 71.695312 76.847656 75.175781 C 76.847656 78.660156 74.015625 81.492188 70.53125 81.492188 Z M 70.53125 81.492188 " fill-opacity="1" fill-rule="evenodd"/><path fill="#fffffe" d="M 46.785156 73.613281 C 45.925781 73.613281 45.222656 74.3125 45.222656 75.175781 C 45.222656 76.039062 45.925781 76.742188 46.785156 76.742188 C 47.648438 76.742188 48.351562 76.039062 48.351562 75.175781 C 48.351562 74.3125 47.648438 73.613281 46.785156 73.613281 Z M 46.785156 77.988281 C 45.238281 77.988281 43.976562 76.726562 43.976562 75.175781 C 43.976562 73.628906 45.238281 72.367188 46.785156 72.367188 C 48.335938 72.367188 49.597656 73.628906 49.597656 75.175781 C 49.597656 76.726562 48.335938 77.988281 46.785156 77.988281 Z M 46.785156 77.988281 " fill-opacity="1" fill-rule="evenodd"/><path fill="#fffffe" d="M 70.53125 73.613281 C 69.671875 73.613281 68.96875 74.3125 68.96875 75.175781 C 68.96875 76.039062 69.667969 76.742188 70.53125 76.742188 C 71.394531 76.742188 72.097656 76.039062 72.097656 75.175781 C 72.097656 74.3125 71.394531 73.613281 70.53125 73.613281 Z M 70.53125 77.988281 C 68.984375 77.988281 67.722656 76.726562 67.722656 75.175781 C 67.722656 73.628906 68.984375 72.367188 70.53125 72.367188 C 72.082031 72.367188 73.34375 73.628906 73.34375 75.175781 C 73.34375 76.726562 72.082031 77.988281 70.53125 77.988281 Z M 70.53125 77.988281 " fill-opacity="1" fill-rule="evenodd"/><path fill="#fffffe" d="M 105.671875 74.964844 L 82.957031 74.964844 C 82.613281 74.964844 82.332031 74.6875 82.332031 74.34375 L 82.332031 31.132812 C 82.332031 30.789062 82.613281 30.511719 82.957031 30.511719 C 83.300781 30.511719 83.578125 30.789062 83.578125 31.132812 L 83.578125 73.71875 L 105.671875 73.71875 C 106.019531 73.71875 106.296875 74 106.296875 74.34375 C 106.296875 74.6875 106.019531 74.964844 105.671875 74.964844 Z M 105.671875 74.964844 " fill-opacity="1" fill-rule="evenodd"/><path fill="#fffffe" d="M 82.957031 64.121094 L 79.296875 64.121094 C 78.949219 64.121094 78.671875 63.84375 78.671875 63.5 C 78.671875 63.15625 78.949219 62.875 79.296875 62.875 L 82.957031 62.875 C 83.300781 62.875 83.578125 63.15625 83.578125 63.5 C 83.578125 63.84375 83.300781 64.121094 82.957031 64.121094 Z M 82.957031 71.105469 L 79.296875 71.105469 C 78.949219 71.105469 78.671875 70.828125 78.671875 70.484375 C 78.671875 70.140625 78.949219 69.859375 79.296875 69.859375 L 82.957031 69.859375 C 83.300781 69.859375 83.578125 70.140625 83.578125 70.484375 C 83.578125 70.828125 83.300781 71.105469 82.957031 71.105469 Z M 82.957031 71.105469 " fill-opacity="1" fill-rule="evenodd"/><path fill="#fffffe" d="M 102.289062 74.804688 C 101.941406 74.804688 101.664062 74.527344 101.664062 74.179688 L 101.664062 58.867188 L 86.972656 58.867188 L 86.972656 74.179688 C 86.972656 74.527344 86.695312 74.804688 86.351562 74.804688 C 86.003906 74.804688 85.726562 74.527344 85.726562 74.179688 L 85.726562 58.242188 C 85.726562 57.898438 86.003906 57.617188 86.351562 57.617188 L 102.289062 57.617188 C 102.632812 57.617188 102.910156 57.898438 102.910156 58.242188 L 102.910156 74.179688 C 102.910156 74.527344 102.632812 74.804688 102.289062 74.804688 Z M 102.289062 74.804688 " fill-opacity="1" fill-rule="evenodd"/><path fill="#fffffe" d="M 91.507812 64.175781 C 91.417969 64.175781 91.324219 64.160156 91.238281 64.117188 C 91.023438 64.011719 90.886719 63.792969 90.886719 63.554688 L 90.886719 58.242188 C 90.886719 57.898438 91.164062 57.617188 91.507812 57.617188 C 91.855469 57.617188 92.132812 57.898438 92.132812 58.242188 L 92.132812 62.257812 L 93.867188 60.871094 C 94.085938 60.691406 94.398438 60.6875 94.625 60.851562 L 96.628906 62.324219 L 96.628906 58.242188 C 96.628906 57.898438 96.910156 57.617188 97.253906 57.617188 C 97.597656 57.617188 97.875 57.898438 97.875 58.242188 L 97.878906 63.554688 C 97.878906 63.789062 97.746094 64.003906 97.535156 64.109375 C 97.328125 64.214844 97.074219 64.195312 96.882812 64.058594 L 94.273438 62.140625 L 91.898438 64.042969 C 91.785156 64.132812 91.648438 64.179688 91.507812 64.175781 Z M 91.507812 64.175781 " fill-opacity="1" fill-rule="evenodd"/><path fill="#fffffe" d="M 89.816406 71.722656 L 93.148438 71.722656 L 93.148438 70.039062 L 89.816406 70.039062 Z M 93.773438 72.972656 L 89.191406 72.972656 C 88.847656 72.972656 88.566406 72.695312 88.566406 72.347656 L 88.566406 69.417969 C 88.566406 69.070312 88.847656 68.792969 89.191406 68.792969 L 93.773438 68.792969 C 94.117188 68.792969 94.394531 69.070312 94.394531 69.417969 L 94.394531 72.347656 C 94.394531 72.695312 94.117188 72.972656 93.773438 72.972656 Z M 93.773438 72.972656 " fill-opacity="1" fill-rule="evenodd"/><path fill="#fffffe" d="M 86.976562 54.695312 L 101.671875 54.695312 L 101.671875 40.003906 L 86.976562 40.003906 Z M 102.292969 55.941406 L 86.355469 55.941406 C 86.011719 55.941406 85.730469 55.664062 85.730469 55.320312 L 85.730469 39.378906 C 85.730469 39.035156 86.011719 38.757812 86.355469 38.757812 L 102.292969 38.757812 C 102.636719 38.757812 102.917969 39.035156 102.917969 39.378906 L 102.917969 55.320312 C 102.917969 55.664062 102.636719 55.941406 102.292969 55.941406 Z M 102.292969 55.941406 " fill-opacity="1" fill-rule="evenodd"/><path fill="#fffffe" d="M 91.515625 45.316406 C 91.421875 45.316406 91.328125 45.296875 91.246094 45.253906 C 91.027344 45.152344 90.890625 44.933594 90.890625 44.695312 L 90.890625 39.378906 C 90.890625 39.035156 91.167969 38.757812 91.515625 38.757812 C 91.859375 38.757812 92.136719 39.035156 92.136719 39.378906 L 92.136719 43.394531 L 93.871094 42.007812 C 94.09375 41.832031 94.402344 41.824219 94.628906 41.992188 L 96.636719 43.460938 L 96.636719 39.378906 C 96.636719 39.035156 96.914062 38.757812 97.257812 38.757812 C 97.601562 38.757812 97.882812 39.035156 97.882812 39.378906 L 97.882812 44.691406 C 97.882812 44.925781 97.75 45.144531 97.539062 45.25 C 97.332031 45.355469 97.078125 45.335938 96.890625 45.195312 L 94.277344 43.28125 L 91.902344 45.179688 C 91.789062 45.269531 91.652344 45.316406 91.515625 45.316406 Z M 91.515625 45.316406 " fill-opacity="1" fill-rule="evenodd"/><path fill="#fffffe" d="M 89.820312 52.863281 L 93.152344 52.863281 L 93.152344 51.179688 L 89.820312 51.179688 Z M 93.777344 54.109375 L 89.199219 54.109375 C 88.851562 54.109375 88.574219 53.832031 88.574219 53.488281 L 88.574219 50.554688 C 88.574219 50.210938 88.851562 49.933594 89.199219 49.933594 L 93.777344 49.933594 C 94.121094 49.933594 94.402344 50.210938 94.402344 50.554688 L 94.402344 53.488281 C 94.402344 53.832031 94.121094 54.109375 93.777344 54.109375 Z M 93.777344 54.109375 " fill-opacity="1" fill-rule="evenodd"/><path fill="#fffffe" d="M 45.320312 54.433594 L 38.726562 54.433594 C 38.378906 54.433594 38.101562 54.15625 38.101562 53.808594 C 38.101562 53.460938 38.378906 53.183594 38.726562 53.183594 L 45.320312 53.183594 C 45.667969 53.183594 45.945312 53.460938 45.945312 53.808594 C 45.945312 54.15625 45.664062 54.433594 45.320312 54.433594 Z M 45.320312 54.433594 " fill-opacity="1" fill-rule="evenodd"/><path fill="#fffffe" d="M 45.320312 56.816406 L 38.726562 56.816406 C 38.378906 56.816406 38.101562 56.535156 38.101562 56.191406 C 38.101562 55.84375 38.378906 55.5625 38.726562 55.5625 L 45.320312 55.5625 C 45.667969 55.5625 45.945312 55.84375 45.945312 56.191406 C 45.945312 56.535156 45.664062 56.816406 45.320312 56.816406 Z M 45.320312 56.816406 " fill-opacity="1" fill-rule="evenodd"/><path fill="#fffffe" d="M 45.320312 59.195312 L 38.726562 59.195312 C 38.378906 59.195312 38.101562 58.917969 38.101562 58.570312 C 38.101562 58.226562 38.378906 57.945312 38.726562 57.945312 L 45.320312 57.945312 C 45.667969 57.945312 45.945312 58.226562 45.945312 58.570312 C 45.945312 58.917969 45.664062 59.195312 45.320312 59.195312 Z M 45.320312 59.195312 " fill-opacity="1" fill-rule="evenodd"/><path fill="#fffffe" d="M 39.800781 68.714844 L 35.828125 68.714844 C 35.484375 68.714844 35.203125 68.4375 35.203125 68.09375 C 35.203125 67.75 35.480469 67.46875 35.828125 67.46875 L 39.179688 67.46875 L 39.179688 64.332031 L 35.828125 64.332031 C 35.484375 64.332031 35.203125 64.050781 35.203125 63.707031 C 35.203125 63.363281 35.480469 63.082031 35.828125 63.082031 L 39.800781 63.082031 C 40.144531 63.082031 40.425781 63.363281 40.425781 63.707031 L 40.425781 68.09375 C 40.425781 68.4375 40.144531 68.71875 39.800781 68.714844 Z M 39.800781 68.714844 " fill-opacity="1" fill-rule="evenodd"/></svg>